<svg width="24" height="27" viewBox="0 0 24 27" fill="none" xmlns="http://www.w3.org/2000/svg">
<path fill-rule="evenodd" clip-rule="evenodd" d="M17.1857 11.5659C17.1857 14.2579 14.8832 16.4402 12.0429 16.4402C9.20254 16.4402 6.9 14.2579 6.9 11.5659C6.9 8.87394 9.20254 6.69165 12.0429 6.69165C14.8832 6.69165 17.1857 8.87394 17.1857 11.5659ZM14.3571 11.5659C14.3571 12.7773 13.321 13.7594 12.0429 13.7594C10.7647 13.7594 9.72857 12.7773 9.72857 11.5659C9.72857 10.3545 10.7647 9.3725 12.0429 9.3725C13.321 9.3725 14.3571 10.3545 14.3571 11.5659Z" fill="white"/>
<path fill-rule="evenodd" clip-rule="evenodd" d="M11.1567 26.0463C11.157 26.0465 11.4607 26.2638 12.0399 26.6394C12.6495 26.2061 12.7907 26.0838 12.8796 26.0205C12.9019 26.0047 12.9339 25.9818 12.975 25.9522C13.0571 25.893 13.1758 25.8067 13.3257 25.6957C13.6254 25.4737 14.0507 25.1524 14.5598 24.7499C15.576 23.9467 16.9363 22.8128 18.3016 21.4958C19.6616 20.1841 21.0587 18.6602 22.1243 17.0755C23.1729 15.5162 24 13.753 24 11.9943C24 5.72084 18.625 0.639404 12 0.639404C5.37504 0.639404 0 5.72084 0 11.9943C0 13.753 0.827066 15.5162 1.87566 17.0755C2.94128 18.6602 4.33843 20.1841 5.69836 21.4958C7.06373 22.8128 8.42397 23.9467 9.44019 24.7499C9.94933 25.1524 10.3746 25.4737 10.6743 25.6957C10.834 25.814 10.9944 25.9313 11.1567 26.0463ZM2.82857 11.9943C2.82857 7.20608 6.9323 3.32026 12 3.32026C17.0677 3.32026 21.1714 7.20608 21.1714 11.9943C21.1714 13.001 20.6753 14.2425 19.7391 15.6347C18.8199 17.0015 17.5706 18.3759 16.2841 19.6168C15.003 20.8525 13.7168 21.9255 12.7482 22.6911C12.4689 22.9118 12.2169 23.1063 12 23.2711C11.7831 23.1063 11.5311 22.9118 11.2518 22.6911C10.2832 21.9255 8.99698 20.8525 7.71593 19.6168C6.42942 18.3759 5.18014 17.0015 4.26094 15.6347C3.32472 14.2425 2.82857 13.001 2.82857 11.9943Z" fill="white"/>
</svg>
