<svg width="97" height="105" viewBox="0 0 97 105" fill="none" xmlns="http://www.w3.org/2000/svg">
<path fill-rule="evenodd" clip-rule="evenodd" d="M29.5322 12.0413C20.6478 12.0413 13.4455 19.2653 13.4455 28.1766C13.4455 37.0879 20.6478 44.3119 29.5322 44.3119C38.4166 44.3119 45.6188 37.0879 45.6188 28.1766C45.6188 19.2653 38.4166 12.0413 29.5322 12.0413ZM18.2475 28.1766C18.2475 21.9254 23.2998 16.8578 29.5322 16.8578C35.7645 16.8578 40.8168 21.9254 40.8168 28.1766C40.8168 34.4278 35.7645 39.4954 29.5322 39.4954C23.2998 39.4954 18.2475 34.4278 18.2475 28.1766Z" fill="#2583F0"/>
<path fill-rule="evenodd" clip-rule="evenodd" d="M67.948 13.4862C60.6549 13.4862 54.7426 19.4164 54.7426 26.7317C54.7426 34.0469 60.6549 39.9771 67.948 39.9771C75.2412 39.9771 81.1535 34.0469 81.1535 26.7317C81.1535 19.4164 75.2412 13.4862 67.948 13.4862ZM59.5446 26.7317C59.5446 22.0765 63.3069 18.3028 67.948 18.3028C72.5891 18.3028 76.3515 22.0765 76.3515 26.7317C76.3515 31.3868 72.5891 35.1605 67.948 35.1605C63.3069 35.1605 59.5446 31.3868 59.5446 26.7317Z" fill="#2583F0"/>
<path fill-rule="evenodd" clip-rule="evenodd" d="M55.2228 58.2798C55.2228 51.3636 60.8126 45.7569 67.7079 45.7569C74.6033 45.7569 80.1931 51.3636 80.1931 58.2798C80.1931 65.196 74.6033 70.8027 67.7079 70.8027C60.8126 70.8027 55.2228 65.196 55.2228 58.2798ZM67.7079 50.5734C63.4646 50.5734 60.0248 54.0237 60.0248 58.2798C60.0248 62.5359 63.4646 65.9862 67.7079 65.9862C71.9512 65.9862 75.3911 62.5359 75.3911 58.2798C75.3911 54.0237 71.9512 50.5734 67.7079 50.5734Z" fill="#2583F0"/>
<path fill-rule="evenodd" clip-rule="evenodd" d="M28.5718 49.1284C23.6655 49.1284 19.6881 53.1178 19.6881 58.039C19.6881 62.9602 23.6655 66.9495 28.5718 66.9495C33.4781 66.9495 37.4554 62.9602 37.4554 58.039C37.4554 53.1178 33.4781 49.1284 28.5718 49.1284ZM24.4901 58.039C24.4901 55.7779 26.3175 53.945 28.5718 53.945C30.826 53.945 32.6535 55.7779 32.6535 58.039C32.6535 60.3001 30.826 62.133 28.5718 62.133C26.3175 62.133 24.4901 60.3001 24.4901 58.039Z" fill="#2583F0"/>
<path d="M84.0347 90.7913C84.0347 93.0524 82.2072 94.8853 79.953 94.8853C77.6987 94.8853 75.8713 93.0524 75.8713 90.7913C75.8713 88.5302 77.6987 86.6972 79.953 86.6972C82.2072 86.6972 84.0347 88.5302 84.0347 90.7913Z" fill="#2583F0"/>
<path d="M66.9876 94.8853C69.2419 94.8853 71.0693 93.0524 71.0693 90.7913C71.0693 88.5302 69.2419 86.6972 66.9876 86.6972C64.7334 86.6972 62.9059 88.5302 62.9059 90.7913C62.9059 93.0524 64.7334 94.8853 66.9876 94.8853Z" fill="#2583F0"/>
<path d="M58.104 90.7913C58.104 93.0524 56.2765 94.8853 54.0223 94.8853C51.768 94.8853 49.9406 93.0524 49.9406 90.7913C49.9406 88.5302 51.768 86.6972 54.0223 86.6972C56.2765 86.6972 58.104 88.5302 58.104 90.7913Z" fill="#2583F0"/>
<path d="M41.0569 94.8853C43.3112 94.8853 45.1386 93.0524 45.1386 90.7913C45.1386 88.5302 43.3112 86.6972 41.0569 86.6972C38.8027 86.6972 36.9752 88.5302 36.9752 90.7913C36.9752 93.0524 38.8027 94.8853 41.0569 94.8853Z" fill="#2583F0"/>
<path fill-rule="evenodd" clip-rule="evenodd" d="M7.20297 0C3.22488 0 0 3.23464 0 7.22477V97.7752C0 101.765 3.22488 105 7.20297 105H89.797C93.7751 105 97 101.765 97 97.7752V7.22477C97 3.23464 93.7751 0 89.797 0H7.20297ZM4.80198 7.22477C4.80198 5.89473 5.87694 4.81651 7.20297 4.81651H89.797C91.1231 4.81651 92.198 5.89473 92.198 7.22477V76.5826L4.80198 76.5826V7.22477ZM4.80198 81.3991V97.7752C4.80198 99.1053 5.87694 100.183 7.20297 100.183H89.797C91.1231 100.183 92.198 99.1053 92.198 97.7752V81.3991L4.80198 81.3991Z" fill="#2583F0"/>
</svg>
