<svg width="84" height="105" viewBox="0 0 84 105" fill="none" xmlns="http://www.w3.org/2000/svg">
<path d="M57.2727 13.4862C57.2727 12.1562 58.3411 11.078 59.6591 11.078H70.1591C71.477 11.078 72.5455 12.1562 72.5455 13.4862C72.5455 14.8163 71.477 15.8945 70.1591 15.8945H59.6591C58.3411 15.8945 57.2727 14.8163 57.2727 13.4862Z" fill="#2583F0"/>
<path fill-rule="evenodd" clip-rule="evenodd" d="M23.8636 89.1055C22.5457 89.1055 21.4773 88.0273 21.4773 86.6972V82.3624C21.4773 82.2703 21.4824 82.1794 21.4924 82.0899C18.8078 81.5237 16.3396 80.0946 14.4166 77.9888C11.8896 75.2216 10.5 71.5076 10.5 67.672V65.2638H37.7045V67.672C37.7045 71.5075 36.315 75.2216 33.7879 77.9888C31.7535 80.2166 29.1087 81.6871 26.2432 82.1797C26.2477 82.24 26.25 82.3009 26.25 82.3624V86.6972C26.25 88.0273 25.1816 89.1055 23.8636 89.1055ZM17.9263 74.7248C16.7616 73.4494 15.9364 71.8403 15.5398 70.0803H32.6648C32.2681 71.8403 31.4429 73.4494 30.2783 74.7248C28.6046 76.5576 26.3782 77.5459 24.1023 77.5459C21.8263 77.5459 19.6 76.5576 17.9263 74.7248Z" fill="#2583F0"/>
<path fill-rule="evenodd" clip-rule="evenodd" d="M42 86.6972C42 88.0273 43.0684 89.1055 44.3864 89.1055C45.7043 89.1055 46.7727 88.0273 46.7727 86.6972V81.0481C49.2078 80.3183 51.2904 78.506 52.8048 76.1332C54.7972 73.0114 55.8409 68.9243 55.8409 64.7821C55.8409 60.6399 54.7972 56.5528 52.8048 53.431C51.2904 51.0582 49.2078 49.2459 46.7727 48.5162V43.3486C46.7727 42.0186 45.7043 40.9404 44.3864 40.9404C43.0684 40.9404 42 42.0186 42 43.3486V86.6972ZM48.7923 73.5252C48.1505 74.5308 47.4608 75.2538 46.7727 75.7434V53.8208C47.4608 54.3104 48.1505 55.0334 48.7923 56.039C50.2011 58.2465 51.0682 61.3876 51.0682 64.7821C51.0682 68.1766 50.2011 71.3177 48.7923 73.5252Z" fill="#2583F0"/>
<path fill-rule="evenodd" clip-rule="evenodd" d="M62.0455 89.1055C60.7275 89.1055 59.6591 88.0273 59.6591 86.6972V43.3486C59.6591 42.0186 60.7275 40.9404 62.0455 40.9404C63.3634 40.9404 64.4318 42.0186 64.4318 43.3486V48.5162C66.8669 49.2459 68.9495 51.0582 70.4639 53.431C72.4563 56.5528 73.5 60.6399 73.5 64.7821C73.5 68.9243 72.4563 73.0114 70.4639 76.1332C68.9495 78.506 66.8669 80.3183 64.4318 81.0481V86.6972C64.4318 88.0273 63.3634 89.1055 62.0455 89.1055ZM64.4318 75.7434C65.1199 75.2538 65.8096 74.5308 66.4514 73.5252C67.8602 71.3177 68.7273 68.1766 68.7273 64.7821C68.7273 61.3876 67.8602 58.2465 66.4514 56.039C65.8096 55.0334 65.1199 54.3104 64.4318 53.8208V75.7434Z" fill="#2583F0"/>
<path fill-rule="evenodd" clip-rule="evenodd" d="M7.15909 0C3.20523 0 0 3.23464 0 7.22477V97.7752C0 101.765 3.20524 105 7.15909 105H76.8409C80.7948 105 84 101.765 84 97.7752V7.22477C84 3.23464 80.7948 0 76.8409 0H7.15909ZM4.77273 7.22477C4.77273 5.89473 5.84114 4.81651 7.15909 4.81651H76.8409C78.1589 4.81651 79.2273 5.89473 79.2273 7.22477V22.6376H4.77273V7.22477ZM4.77273 27.4541V97.7752C4.77273 99.1053 5.84114 100.183 7.15909 100.183H76.8409C78.1589 100.183 79.2273 99.1053 79.2273 97.7752V27.4541H4.77273Z" fill="#2583F0"/>
</svg>
