<svg width="83" height="105" viewBox="0 0 83 105" fill="none" xmlns="http://www.w3.org/2000/svg">
<path d="M56.5909 13.4862C56.5909 12.1562 57.6466 11.078 58.9489 11.078H69.3239C70.6261 11.078 71.6818 12.1562 71.6818 13.4862C71.6818 14.8163 70.6261 15.8945 69.3239 15.8945H58.9489C57.6466 15.8945 56.5909 14.8163 56.5909 13.4862Z" fill="#2583F0"/>
<path d="M31.6121 72.2C30.8825 71.5434 30.201 70.5116 30.0477 69.4364C29.9193 68.5356 30.1007 67.2377 31.7992 65.6729C34.4093 63.2681 35.5113 60.7037 35.6395 58.2892C35.7634 55.9565 34.962 54.077 34.3335 52.975C33.6779 51.8258 32.2343 51.4369 31.1091 52.1064C29.9838 52.7759 29.6031 54.2503 30.2586 55.3996C30.6175 56.0288 30.9871 56.9628 30.9305 58.0283C30.8783 59.012 30.4484 60.4307 28.6404 62.0965C25.9209 64.602 24.9985 67.4467 25.381 70.1303C25.7387 72.6393 27.1828 74.6334 28.4942 75.8137C29.4713 76.693 30.9613 76.5969 31.8223 75.599C32.6832 74.6011 32.5891 73.0794 31.6121 72.2Z" fill="#2583F0"/>
<path d="M40.6806 69.4364C40.8339 70.5116 41.5154 71.5434 42.245 72.2C43.222 73.0794 43.3161 74.6011 42.4552 75.599C41.5942 76.5969 40.1042 76.693 39.1271 75.8137C37.8157 74.6334 36.3716 72.6393 36.0139 70.1303C35.6314 67.4467 36.5538 64.602 39.2733 62.0965C41.0813 60.4307 41.5112 59.012 41.5634 58.0283C41.62 56.9628 41.2504 56.0288 40.8915 55.3996C40.236 54.2503 40.6167 52.7759 41.742 52.1064C42.8672 51.4369 44.3108 51.8258 44.9664 52.975C45.5949 54.077 46.3963 55.9565 46.2724 58.2892C46.1442 60.7037 45.0422 63.2681 42.4321 65.6729C40.7336 67.2377 40.5522 68.5356 40.6806 69.4364Z" fill="#2583F0"/>
<path d="M52.8779 72.2C52.1483 71.5434 51.4668 70.5116 51.3135 69.4364C51.1851 68.5356 51.3665 67.2377 53.065 65.6729C55.6751 63.2681 56.7771 60.7037 56.9053 58.2892C57.0292 55.9565 56.2278 54.077 55.5993 52.975C54.9437 51.8258 53.5001 51.4369 52.3749 52.1064C51.2496 52.7759 50.8689 54.2503 51.5244 55.3996C51.8833 56.0288 52.2529 56.9628 52.1963 58.0283C52.1441 59.012 51.7142 60.4307 49.9062 62.0965C47.1867 64.602 46.2643 67.4467 46.6468 70.1303C47.0045 72.6393 48.4486 74.6334 49.76 75.8137C50.7371 76.693 52.2271 76.5969 53.0881 75.599C53.949 74.6011 53.8549 73.0794 52.8779 72.2Z" fill="#2583F0"/>
<path fill-rule="evenodd" clip-rule="evenodd" d="M13.6761 64.0596C13.6761 48.3651 26.1333 35.6422 41.5 35.6422C56.8667 35.6422 69.3239 48.3651 69.3239 64.0596C69.3239 79.7542 56.8667 92.4771 41.5 92.4771C26.1333 92.4771 13.6761 79.7542 13.6761 64.0596ZM41.5 40.4587C28.7378 40.4587 18.392 51.0252 18.392 64.0596C18.392 77.0941 28.7378 87.6605 41.5 87.6605C54.2622 87.6605 64.608 77.0941 64.608 64.0596C64.608 51.0252 54.2622 40.4587 41.5 40.4587Z" fill="#2583F0"/>
<path fill-rule="evenodd" clip-rule="evenodd" d="M7.07386 0C3.16708 0 0 3.23464 0 7.22477V97.7752C0 101.765 3.16708 105 7.07387 105H75.9261C79.8329 105 83 101.765 83 97.7752V7.22477C83 3.23464 79.8329 0 75.9261 0H7.07386ZM4.71591 7.22477C4.71591 5.89473 5.7716 4.81651 7.07386 4.81651H75.9261C77.2284 4.81651 78.2841 5.89473 78.2841 7.22477V22.6376H4.71591V7.22477ZM4.71591 27.4541V97.7752C4.71591 99.1053 5.7716 100.183 7.07387 100.183H75.9261C77.2284 100.183 78.2841 99.1053 78.2841 97.7752V27.4541H4.71591Z" fill="#2583F0"/>
</svg>
