<svg width="71" height="114" viewBox="0 0 71 114" fill="none" xmlns="http://www.w3.org/2000/svg">
<path d="M11.1759 28.3777C9.84853 28.3777 8.77248 27.2824 8.77248 25.9313L8.77248 15.1674C8.77248 13.8163 9.84853 12.721 11.1759 12.721C12.5033 12.721 13.5793 13.8163 13.5793 15.1674L13.5793 25.9313C13.5793 27.2824 12.5033 28.3777 11.1759 28.3777Z" fill="#2583F0"/>
<path fill-rule="evenodd" clip-rule="evenodd" d="M36.731 48.2635V50.9469C39.2605 51.4337 41.4596 52.8756 42.9549 54.8914L45.1502 53.5976C45.1511 53.4889 45.162 53.3788 45.1834 53.2683L46.2067 47.9968C46.3919 47.0426 47.2999 46.4223 48.2347 46.6114C49.1695 46.8004 49.7772 47.7273 49.592 48.6815L49.0882 51.2769L51.395 49.9174C52.2203 49.431 53.2757 49.7196 53.7522 50.5621C54.2287 51.4045 53.9459 52.4818 53.1206 52.9681L50.8137 54.3276L53.2676 55.18C54.1698 55.4933 54.6523 56.4939 54.3453 57.4149C54.0383 58.3358 53.058 58.8283 52.1558 58.5149L47.1718 56.7838C47.0673 56.7475 46.9684 56.702 46.8758 56.6484L44.5425 58.0235C44.8488 59.0128 45.014 60.0661 45.014 61.1588C45.014 62.5601 44.7423 63.8965 44.2497 65.1163L46.4979 66.4413C46.5906 66.3877 46.6895 66.3422 46.794 66.3059L51.778 64.5748C52.6802 64.2614 53.6604 64.7539 53.9674 65.6748C54.2744 66.5958 53.7919 67.5963 52.8897 67.9097L50.4359 68.762L52.7427 70.1215C53.568 70.6079 53.8508 71.6852 53.3743 72.5276C52.8978 73.3701 51.8425 73.6587 51.0172 73.1723L48.7103 71.8128L49.2141 74.4082C49.3993 75.3624 48.7917 76.2892 47.8569 76.4783C46.922 76.6674 46.014 76.0471 45.8288 75.0929L44.8056 69.8214C44.7841 69.7109 44.7733 69.6008 44.7724 69.4921L42.4102 68.0999C40.8733 69.8467 38.7652 71.0592 36.3858 71.4308V74.0541C36.4776 74.1092 36.5656 74.1738 36.6487 74.2481L40.6094 77.7884C41.3264 78.4292 41.3987 79.542 40.7708 80.2739C40.143 81.0057 39.0528 81.0795 38.3359 80.4386L36.3858 78.6956V81.4146C36.3858 82.3874 35.6133 83.176 34.6603 83.176C33.7073 83.176 32.9347 82.3874 32.9347 81.4146V78.6956L30.9847 80.4386C30.2677 81.0795 29.1775 81.0057 28.5497 80.2739C27.9219 79.542 27.9942 78.4292 28.7111 77.7884L32.6719 74.2481C32.7549 74.1738 32.843 74.1092 32.9347 74.054V71.3705C30.61 70.923 28.5644 69.6687 27.0878 67.9036L24.8222 69.2388C24.8213 69.3474 24.8105 69.4576 24.789 69.5681L23.7658 74.8396C23.5806 75.7938 22.6726 76.4141 21.7377 76.225C20.8029 76.0359 20.1953 75.1091 20.3805 74.1549L20.8843 71.5595L18.5774 72.919C17.7521 73.4054 16.6968 73.1168 16.2203 72.2743C15.7438 71.4319 16.0265 70.3546 16.8519 69.8682L19.1587 68.5087L16.7049 67.6564C15.8027 67.343 15.3202 66.3424 15.6272 65.4215C15.9342 64.5006 16.9144 64.0081 17.8166 64.3215L22.8006 66.0526C22.9051 66.0889 23.004 66.1344 23.0967 66.188L25.323 64.8759C24.8898 63.7217 24.6524 62.4685 24.6524 61.1588C24.6524 59.9052 24.8699 58.7034 25.2684 57.5907L23.064 56.2916C22.9714 56.3451 22.8725 56.3906 22.768 56.4269L17.784 58.1581C16.8818 58.4714 15.9015 57.9789 15.5945 57.058C15.2875 56.1371 15.7701 55.1365 16.6722 54.8231L19.1261 53.9708L16.8192 52.6113C15.9939 52.1249 15.7111 51.0477 16.1876 50.2052C16.6641 49.3628 17.7195 49.0741 18.5448 49.5605L20.8516 50.92L20.3478 48.3246C20.1626 47.3704 20.7703 46.4436 21.7051 46.2545C22.6399 46.0654 23.5479 46.6857 23.7331 47.6399L24.7564 52.9114C24.7779 53.0219 24.7887 53.1321 24.7896 53.2408L26.9873 54.536C28.5423 52.6187 30.7589 51.2808 33.2799 50.8869V48.2635C33.1882 48.2084 33.1001 48.1438 33.0171 48.0695L29.0563 44.5292C28.3394 43.8884 28.2671 42.7756 28.8949 42.0437C29.5228 41.3119 30.6129 41.2381 31.3299 41.879L33.2799 43.622V40.903C33.2799 39.9302 34.0525 39.1416 35.0055 39.1416C35.9585 39.1416 36.731 39.9302 36.731 40.903V43.622L38.6811 41.879C39.3981 41.2381 40.4882 41.3119 41.116 42.0437C41.7439 42.7756 41.6716 43.8884 40.9546 44.5292L36.9939 48.0695C36.9109 48.1438 36.8228 48.2084 36.731 48.2635ZM34.8332 54.2894C31.1165 54.2894 28.1035 57.365 28.1035 61.1588C28.1035 64.9526 31.1165 68.0282 34.8332 68.0282C38.5499 68.0282 41.5629 64.9526 41.5629 61.1588C41.5629 57.365 38.5499 54.2894 34.8332 54.2894Z" fill="#2583F0"/>
<path fill-rule="evenodd" clip-rule="evenodd" d="M0.120117 7.33906C0.120117 3.28581 3.34828 0 7.33042 0H63.0901C67.0722 0 70.3004 3.28581 70.3004 7.33906V104.704C70.3004 108.757 67.0722 112.043 63.0901 112.043H62.0806C61.8579 113.16 60.888 114 59.7253 114H49.1502C47.9874 114 47.0175 113.16 46.7948 112.043H24.1064C23.8837 113.16 22.9138 114 21.751 114H11.1759C10.0132 114 9.04324 113.16 8.82056 112.043H7.33042C3.34828 112.043 0.120117 108.757 0.120117 104.704V7.33906ZM7.33042 4.8927C6.00304 4.8927 4.92698 5.98797 4.92698 7.33906V104.704C4.92698 106.055 6.00304 107.15 7.33042 107.15H63.0901C64.4175 107.15 65.4935 106.055 65.4935 104.704V7.33906C65.4935 5.98797 64.4175 4.8927 63.0901 4.8927H7.33042Z" fill="#2583F0"/>
</svg>
