<svg width="71" height="115" viewBox="0 0 71 115" fill="none" xmlns="http://www.w3.org/2000/svg">
<path fill-rule="evenodd" clip-rule="evenodd" d="M37.966 40.2294V43.207C40.8093 43.7472 43.2812 45.3472 44.9621 47.584L47.4299 46.1484C47.4309 46.0278 47.4431 45.9055 47.4672 45.7829L48.6174 39.9334C48.8256 38.8746 49.8463 38.1863 50.8971 38.3961C51.9479 38.6059 52.631 39.6343 52.4228 40.6932L51.8565 43.5731L54.4496 42.0646C55.3773 41.5248 56.5636 41.8451 57.0993 42.78C57.6349 43.7148 57.317 44.9101 56.3893 45.4499L53.7962 46.9584L56.5545 47.9042C57.5686 48.252 58.111 49.3623 57.7659 50.3842C57.4208 51.4061 56.319 51.9526 55.3048 51.6049L49.7023 49.6839C49.5849 49.6436 49.4737 49.5931 49.3696 49.5337L46.7467 51.0596C47.091 52.1573 47.2768 53.3261 47.2768 54.5386C47.2768 56.0935 46.9713 57.5766 46.4177 58.9301L48.9448 60.4003C49.049 60.3409 49.1601 60.2904 49.2776 60.2501L54.8801 58.3291C55.8942 57.9814 56.9961 58.5279 57.3412 59.5498C57.6863 60.5717 57.1439 61.682 56.1298 62.0298L53.3714 62.9756L55.9645 64.4841C56.8923 65.0239 57.2101 66.2192 56.6745 67.154C56.1389 68.0889 54.9526 68.4091 54.0249 67.8694L51.4318 66.3609L51.9981 69.2408C52.2063 70.2996 51.5232 71.3281 50.4724 71.5379C49.4216 71.7477 48.4009 71.0594 48.1927 70.0006L47.0424 64.1511C47.0183 64.0285 47.0062 63.9062 47.0052 63.7856L44.3498 62.2408C42.6223 64.1792 40.2525 65.5246 37.5779 65.937V68.8478C37.6811 68.909 37.78 68.9807 37.8734 69.0631L42.3256 72.9916C43.1316 73.7027 43.2128 74.9375 42.5071 75.7496C41.8013 76.5617 40.5759 76.6436 39.7699 75.9325L37.5779 73.9983V77.0154C37.5779 78.0949 36.7095 78.97 35.6382 78.97C34.567 78.97 33.6986 78.0949 33.6986 77.0154V73.9983L31.5065 75.9324C30.7006 76.6436 29.4752 76.5617 28.7694 75.7496C28.0637 74.9375 28.1449 73.7027 28.9509 72.9916L33.4031 69.0631C33.4964 68.9807 33.5954 68.909 33.6986 68.8478V65.8701C31.0854 65.3734 28.786 63.9816 27.1261 62.023L24.5794 63.5045C24.5784 63.6251 24.5662 63.7474 24.5421 63.87L23.3919 69.7195C23.1836 70.7783 22.163 71.4666 21.1122 71.2568C20.0613 71.047 19.3783 70.0186 19.5865 68.9597L20.1528 66.0798L17.5597 67.5883C16.632 68.1281 15.4457 67.8078 14.91 66.8729C14.3744 65.9381 14.6923 64.7428 15.62 64.203L18.2131 62.6945L15.4548 61.7487C14.4406 61.401 13.8983 60.2907 14.2434 59.2688C14.5885 58.2468 15.6903 57.7003 16.7045 58.0481L22.307 59.969C22.4244 60.0093 22.5356 60.0598 22.6397 60.1192L25.1424 58.6633C24.6554 57.3825 24.3885 55.992 24.3885 54.5386C24.3885 53.1476 24.633 51.814 25.0809 50.5793L22.603 49.1377C22.4989 49.1971 22.3877 49.2476 22.2703 49.2879L16.6678 51.2089C15.6536 51.5566 14.5518 51.0101 14.2067 49.9882C13.8616 48.9663 14.4039 47.856 15.4181 47.5082L18.1764 46.5625L15.5833 45.0539C14.6556 44.5142 14.3377 43.3188 14.8733 42.384C15.409 41.4492 16.5953 41.1289 17.523 41.6686L20.1161 43.1772L19.5498 40.2972C19.3416 39.2384 20.0247 38.2099 21.0755 38.0001C22.1263 37.7903 23.147 38.4786 23.3552 39.5374L24.5054 45.3869C24.5295 45.5095 24.5417 45.6318 24.5427 45.7524L27.0132 47.1896C28.7611 45.0621 31.2528 43.5775 34.0866 43.1404V40.2294C33.9835 40.1682 33.8845 40.0965 33.7912 40.0141L29.3389 36.0857C28.533 35.3745 28.4518 34.1397 29.1575 33.3276C29.8632 32.5155 31.0887 32.4337 31.8946 33.1448L34.0866 35.0789V32.0618C34.0866 30.9824 34.955 30.1073 36.0263 30.1073C37.0976 30.1073 37.966 30.9824 37.966 32.0618V35.079L40.158 33.1448C40.9639 32.4337 42.1894 32.5155 42.8951 33.3276C43.6008 34.1397 43.5196 35.3745 42.7137 36.0857L38.2614 40.0141C38.1681 40.0965 38.0691 40.1682 37.966 40.2294ZM35.8326 46.916C31.6548 46.916 28.2679 50.3288 28.2679 54.5386C28.2679 58.7485 31.6548 62.1612 35.8326 62.1612C40.0105 62.1612 43.3974 58.7485 43.3974 54.5386C43.3974 50.3288 40.0105 46.916 35.8326 46.916Z" fill="#2583F0"/>
<path fill-rule="evenodd" clip-rule="evenodd" d="M7.29452 0C3.26587 0 0 3.31463 0 7.40343V105.622C0 109.711 3.26587 113.026 7.29452 113.026H8.31576C8.54105 114.152 9.52229 115 10.6986 115H21.3973C22.5736 115 23.5548 114.152 23.7801 113.026H46.7336C46.9589 114.152 47.9401 115 49.1164 115H59.8151C60.9914 115 61.9726 114.152 62.1979 113.026H63.7055C67.7341 113.026 71 109.711 71 105.622V7.40343C71 3.31463 67.7341 0 63.7055 0H7.29452ZM4.86301 7.40343C4.86301 6.0405 5.95164 4.93562 7.29452 4.93562H63.7055C65.0484 4.93562 66.137 6.0405 66.137 7.40343V105.622C66.137 106.985 65.0484 108.09 63.7055 108.09H7.29452C5.95164 108.09 4.86301 106.985 4.86301 105.622V7.40343Z" fill="#2583F0"/>
</svg>
