<svg width="118" height="84" viewBox="0 0 118 84" fill="none" xmlns="http://www.w3.org/2000/svg">
<path d="M32.4022 53.8852C31.2519 52.8849 30.1344 51.2867 29.8766 49.539C29.6443 47.9643 30.0478 45.8898 32.6597 43.5645C36.2064 40.4069 37.6382 37.1078 37.8053 34.0684C37.9678 31.1102 36.9155 28.7123 36.0764 27.2908C35.4041 26.152 33.9238 25.7667 32.7698 26.4301C31.6159 27.0936 31.2255 28.5545 31.8977 29.6933C32.4603 30.6463 33.0699 32.1073 32.9763 33.8099C32.8872 35.4314 32.1446 37.5953 29.4204 40.0206C25.7615 43.278 24.5981 46.8853 25.091 50.2266C25.5584 53.395 27.4581 55.9469 29.2049 57.466C30.2068 58.3374 31.7348 58.2421 32.6177 57.2533C33.5006 56.2645 33.4041 54.7566 32.4022 53.8852Z" fill="#2583F0"/>
<path d="M44.9686 49.539C45.2264 51.2867 46.3439 52.8849 47.4941 53.8852C48.496 54.7566 48.5925 56.2645 47.7096 57.2533C46.8267 58.2421 45.2987 58.3374 44.2968 57.466C42.55 55.9469 40.6503 53.395 40.1829 50.2266C39.6901 46.8853 40.8534 43.278 44.5123 40.0206C47.2366 37.5953 47.9791 35.4314 48.0682 33.8099C48.1618 32.1073 47.5522 30.6463 46.9896 29.6933C46.3174 28.5545 46.7079 27.0936 47.8618 26.4301C49.0157 25.7667 50.4961 26.152 51.1683 27.2908C52.0074 28.7123 53.0598 31.1102 52.8972 34.0684C52.7301 37.1078 51.2983 40.4069 47.7516 43.5645C45.1397 45.8898 44.7363 47.9643 44.9686 49.539Z" fill="#2583F0"/>
<path d="M62.5869 53.8843C61.4367 52.884 60.3192 51.2857 60.0614 49.5381C59.8291 47.9634 60.2326 45.8888 62.8445 43.5635C66.3912 40.406 67.823 37.1068 67.99 34.0675C68.1526 31.1092 67.1003 28.7114 66.2612 27.2899C65.5889 26.1511 64.1085 25.7658 62.9546 26.4292C61.8007 27.0926 61.4103 28.5536 62.0825 29.6924C62.645 30.6454 63.2547 32.1063 63.1611 33.809C63.072 35.4305 62.3294 37.5944 59.6052 40.0197C55.9463 43.2771 54.7829 46.8844 55.2758 50.2257C55.7432 53.3941 57.6429 55.946 59.3897 57.4651C60.3916 58.3364 61.9196 58.2412 62.8025 57.2524C63.6854 56.2636 63.5889 54.7556 62.5869 53.8843Z" fill="#2583F0"/>
<path fill-rule="evenodd" clip-rule="evenodd" d="M18.8607 72.0682C14.8543 72.0682 11.6066 68.8629 11.6066 64.9091L11.6066 19.0909C11.6066 15.1371 14.8543 11.9318 18.8607 11.9318L75.4426 11.9318C79.449 11.9318 82.6967 15.1371 82.6967 19.0909V64.9091C82.6967 68.8629 79.449 72.0682 75.4426 72.0682H18.8607ZM16.4426 64.9091C16.4426 66.227 17.5252 67.2955 18.8607 67.2955H75.4426C76.7781 67.2955 77.8607 66.227 77.8607 64.9091V19.0909C77.8607 17.773 76.7781 16.7045 75.4426 16.7045L18.8607 16.7045C17.5252 16.7045 16.4426 17.773 16.4426 19.0909L16.4426 64.9091Z" fill="#2583F0"/>
<path d="M99.1393 41.7614C99.1393 44.0019 100.98 45.8182 103.25 45.8182C105.52 45.8182 107.361 44.0019 107.361 41.7614C107.361 39.5208 105.52 37.7045 103.25 37.7045C100.98 37.7045 99.1393 39.5208 99.1393 41.7614Z" fill="#2583F0"/>
<path d="M103.25 58.7045C100.98 58.7045 99.1393 56.8882 99.1393 54.6477C99.1393 52.4072 100.98 50.5909 103.25 50.5909C105.52 50.5909 107.361 52.4072 107.361 54.6477C107.361 56.8882 105.52 58.7045 103.25 58.7045Z" fill="#2583F0"/>
<path d="M103.25 71.5909C100.98 71.5909 99.1393 69.7746 99.1393 67.5341C99.1393 65.2936 100.98 63.4773 103.25 63.4773C105.52 63.4773 107.361 65.2936 107.361 67.5341C107.361 69.7746 105.52 71.5909 103.25 71.5909Z" fill="#2583F0"/>
<path fill-rule="evenodd" clip-rule="evenodd" d="M3.4034e-06 76.8409C3.4034e-06 80.7948 3.24777 84 7.2541 84L110.746 84C114.752 84 118 80.7948 118 76.8409V7.15909C118 3.20523 114.752 -1.72828e-07 110.746 0L7.2541 4.46452e-06C3.24777 4.63735e-06 -1.75122e-07 3.20524 0 7.1591L3.4034e-06 76.8409ZM7.2541 79.2273C5.91866 79.2273 4.83607 78.1589 4.83607 76.8409L4.83607 7.1591C4.83606 5.84114 5.91866 4.77273 7.2541 4.77273L89.4672 4.77273V79.2273L7.2541 79.2273ZM94.3033 79.2273H110.746C112.081 79.2273 113.164 78.1589 113.164 76.8409V7.15909C113.164 5.84114 112.081 4.77273 110.746 4.77273L94.3033 4.77273V79.2273Z" fill="#2583F0"/>
</svg>
