<svg width="86" height="105" viewBox="0 0 86 105" fill="none" xmlns="http://www.w3.org/2000/svg">
<path d="M36.1591 13.9679C34.8098 13.9679 33.7159 15.0461 33.7159 16.3761C33.7159 17.7062 34.8098 18.7844 36.1591 18.7844L71.8295 18.7844C73.1789 18.7844 74.2727 17.7062 74.2727 16.3762C74.2727 15.0461 73.1789 13.9679 71.8295 13.9679L36.1591 13.9679Z" fill="#2583F0"/>
<path d="M12.7045 16.3761C12.7045 15.0461 13.7984 13.9679 15.1477 13.9679H21.5C22.8493 13.9679 23.9432 15.0461 23.9432 16.3761C23.9432 17.7062 22.8493 18.7844 21.5 18.7844H15.1477C13.7984 18.7844 12.7045 17.7062 12.7045 16.3761Z" fill="#2583F0"/>
<path d="M28.2527 68.8282C27.0905 67.8187 25.9614 66.2058 25.7009 64.4421C25.4662 62.853 25.8738 60.7594 28.5129 58.4127C32.0965 55.2262 33.5432 51.8968 33.712 48.8296C33.8762 45.8442 32.8129 43.4243 31.9651 41.9898C31.2859 40.8406 29.7901 40.4517 28.6242 41.1212C27.4583 41.7907 27.0637 43.2651 27.743 44.4144C28.3114 45.3761 28.9273 46.8504 28.8328 48.5687C28.7427 50.2051 27.9925 52.3888 25.2399 54.8364C21.5429 58.1237 20.3675 61.7641 20.8655 65.136C21.3377 68.3335 23.2572 70.9088 25.0221 72.4419C26.0345 73.3212 27.5784 73.2251 28.4704 72.2272C29.3625 71.2293 29.265 69.7075 28.2527 68.8282Z" fill="#2583F0"/>
<path d="M40.9498 64.4421C41.2103 66.2058 42.3394 67.8187 43.5016 68.8282C44.5139 69.7075 44.6114 71.2293 43.7193 72.2272C42.8272 73.2251 41.2834 73.3212 40.271 72.4419C38.506 70.9088 36.5866 68.3335 36.1144 65.136C35.6164 61.7641 36.7918 58.1237 40.4888 54.8364C43.2414 52.3888 43.9916 50.2051 44.0817 48.5687C44.1762 46.8504 43.5603 45.3761 42.9919 44.4144C42.3126 43.2651 42.7072 41.7907 43.8731 41.1212C45.039 40.4517 46.5348 40.8406 47.214 41.9898C48.0618 43.4243 49.1251 45.8442 48.9609 48.8296C48.7921 51.8968 47.3454 55.2262 43.7618 58.4127C41.1227 60.7594 40.7151 62.853 40.9498 64.4421Z" fill="#2583F0"/>
<path d="M58.7514 68.8282C57.5892 67.8187 56.4601 66.2058 56.1996 64.4421C55.9649 62.853 56.3725 60.7594 59.0116 58.4127C62.5952 55.2262 64.0419 51.8968 64.2107 48.8296C64.375 45.8442 63.3117 43.4243 62.4638 41.9898C61.7846 40.8406 60.2888 40.4517 59.1229 41.1212C57.957 41.7907 57.5625 43.2651 58.2417 44.4144C58.8101 45.3761 59.4261 46.8504 59.3315 48.5687C59.2415 50.2051 58.4912 52.3888 55.7386 54.8364C52.0417 58.1237 50.8662 61.7641 51.3642 65.136C51.8365 68.3335 53.7559 70.9088 55.5209 72.4419C56.5332 73.3212 58.0771 73.2251 58.9692 72.2272C59.8613 71.2293 59.7638 69.7075 58.7514 68.8282Z" fill="#2583F0"/>
<path fill-rule="evenodd" clip-rule="evenodd" d="M0 7.22477C0 3.23464 3.28155 0 7.32955 0H78.6705C82.7185 0 86 3.23464 86 7.22477V97.7752C86 101.765 82.7185 105 78.6705 105H7.32955C3.28155 105 0 101.765 0 97.7752V7.22477ZM7.32955 4.81651C5.98021 4.81651 4.88636 5.89473 4.88636 7.22477V25.5275L81.1136 25.5275V7.22477C81.1136 5.89473 80.0198 4.81651 78.6705 4.81651H7.32955ZM4.88636 82.844V30.344L81.1136 30.344V82.844H4.88636ZM4.88636 87.6605H81.1136V97.7752C81.1136 99.1053 80.0198 100.183 78.6705 100.183H7.32955C5.98021 100.183 4.88636 99.1053 4.88636 97.7752V87.6605Z" fill="#2583F0"/>
</svg>
