<svg width="82" height="131" viewBox="0 0 82 131" fill="none" xmlns="http://www.w3.org/2000/svg">
<path d="M12.9178 32.5753C11.3669 32.5753 10.1096 31.3181 10.1096 29.7671L10.1096 17.411C10.1096 15.86 11.3669 14.6027 12.9178 14.6027C14.4687 14.6027 15.726 15.86 15.726 17.411L15.726 29.7671C15.726 31.3181 14.4687 32.5753 12.9178 32.5753Z" fill="#2583F0"/>
<path d="M10.1096 61.7808C10.1096 63.3318 11.3669 64.589 12.9178 64.589C14.4687 64.589 15.726 63.3318 15.726 61.7808L15.726 49.4247C15.726 47.8737 14.4687 46.6164 12.9178 46.6164C11.3669 46.6164 10.1096 47.8737 10.1096 49.4247L10.1096 61.7808Z" fill="#2583F0"/>
<path fill-rule="evenodd" clip-rule="evenodd" d="M8.42466 0C3.77185 0 0 3.77185 0 8.42466V120.192C0 124.845 3.77185 128.616 8.42466 128.616H9.60412C9.86431 129.898 10.9976 130.863 12.3562 130.863H24.7123C26.0709 130.863 27.2042 129.898 27.4644 128.616H53.974C54.2342 129.898 55.3674 130.863 56.726 130.863H69.0822C70.4408 130.863 71.574 129.898 71.8342 128.616H73.5753C78.2282 128.616 82 124.845 82 120.192V8.42466C82 3.77185 78.2282 0 73.5753 0H8.42466ZM5.61644 8.42466C5.61644 6.87372 6.87372 5.61644 8.42466 5.61644H73.5753C75.1263 5.61644 76.3836 6.87372 76.3836 8.42466V37.0685H5.61644V8.42466ZM5.61644 42.6849V120.192C5.61644 121.743 6.87372 123 8.42466 123H73.5753C75.1263 123 76.3836 121.743 76.3836 120.192V42.6849H5.61644Z" fill="#2583F0"/>
</svg>
