<svg width="85" height="105" viewBox="0 0 85 105" fill="none" xmlns="http://www.w3.org/2000/svg">
<path d="M11.5909 13.4862C11.5909 12.1562 12.672 11.078 14.0057 11.078H24.6307C25.9643 11.078 27.0455 12.1562 27.0455 13.4862C27.0455 14.8163 25.9643 15.8945 24.6307 15.8945H14.0057C12.672 15.8945 11.5909 14.8163 11.5909 13.4862Z" fill="#2583F0"/>
<path fill-rule="evenodd" clip-rule="evenodd" d="M14.0057 64.0596C14.0057 48.3651 26.763 35.6422 42.5 35.6422C58.237 35.6422 70.9943 48.3651 70.9943 64.0596C70.9943 79.7542 58.237 92.4771 42.5 92.4771C26.763 92.4771 14.0057 79.7542 14.0057 64.0596ZM18.9286 61.9484C20.828 60.1103 23.1979 58.4787 25.9909 57.5071C31.2163 55.6893 37.5235 56.3222 44.2907 61.4079C50.0541 65.7391 54.8044 66.5051 58.4032 66.0108C61.7431 65.552 64.3728 63.9676 66.1175 62.5561C65.34 50.2222 55.0633 40.4587 42.5 40.4587C30.1438 40.4587 19.9994 49.9031 18.9286 61.9484ZM65.7306 68.583C63.881 69.5784 61.6461 70.4273 59.0621 70.7822C54.04 71.4721 48.031 70.2497 41.3843 65.2545C35.7416 61.014 31.1013 60.8304 27.5816 62.0548C23.895 63.3374 21.0234 66.3141 19.4248 69.0271C19.4094 69.0533 19.3934 69.0792 19.3771 69.1047C21.6939 79.715 31.1666 87.6605 42.5 87.6605C54.0184 87.6605 63.6148 79.4535 65.7306 68.583Z" fill="#2583F0"/>
<path fill-rule="evenodd" clip-rule="evenodd" d="M7.24432 0C3.24339 0 0 3.23464 0 7.22477V97.7752C0 101.765 3.24339 105 7.24432 105H77.7557C81.7566 105 85 101.765 85 97.7752V7.22477C85 3.23464 81.7566 0 77.7557 0H7.24432ZM4.82955 7.22477C4.82955 5.89473 5.91068 4.81651 7.24432 4.81651H77.7557C79.0893 4.81651 80.1705 5.89473 80.1705 7.22477V22.6376H4.82955V7.22477ZM4.82955 27.4541V97.7752C4.82955 99.1053 5.91068 100.183 7.24432 100.183H77.7557C79.0893 100.183 80.1705 99.1053 80.1705 97.7752V27.4541H4.82955Z" fill="#2583F0"/>
</svg>
