<svg width="72" height="115" viewBox="0 0 72 115" fill="none" xmlns="http://www.w3.org/2000/svg">
<path fill-rule="evenodd" clip-rule="evenodd" d="M9.53642 0C5.58631 0 2.38411 3.31463 2.38411 7.40343V26.6524C1.0674 26.6524 0 27.7572 0 29.1202V47.8755C9.53783e-07 49.2385 1.0674 50.3433 2.38411 50.3433L2.38411 105.622C2.38411 109.711 5.58631 113.026 9.53642 113.026H10.5378C10.7587 114.152 11.7208 115 12.8742 115H23.3642C24.5176 115 25.4798 114.152 25.7007 113.026H48.2066C48.4275 114.152 49.3896 115 50.543 115H61.0331C62.1865 115 63.1486 114.152 63.3695 113.026H64.8477C68.7978 113.026 72 109.711 72 105.622V7.40343C72 3.31463 68.7978 0 64.8477 0H9.53642ZM64.8477 108.09H22.4106C21.0939 108.09 20.0265 106.985 20.0265 105.622V7.40343C20.0265 6.0405 21.0939 4.93562 22.4106 4.93562H64.8477C66.1644 4.93562 67.2318 6.0405 67.2318 7.40343V33.5622H65.1031C65.5491 32.6763 65.8013 31.6691 65.8013 30.6009C65.8013 27.0572 63.0261 24.1845 59.6026 24.1845C56.1792 24.1845 53.404 27.0572 53.404 30.6009C53.404 31.6691 53.6561 32.6763 54.1022 33.5622H51.7521C52.1982 32.6763 52.4503 31.6691 52.4503 30.6009C52.4503 27.0572 49.6751 24.1845 46.2517 24.1845C42.8282 24.1845 40.053 27.0572 40.053 30.6009C40.053 31.6691 40.3052 32.6763 40.7512 33.5622H28.1325C26.8157 33.5622 25.7483 34.6671 25.7483 36.03C25.7483 37.393 26.8157 38.4979 28.1325 38.4979L67.2318 38.4978V57.7468H65.1031C65.5491 56.8608 65.8013 55.8536 65.8013 54.7854C65.8013 51.2418 63.0261 48.3691 59.6026 48.3691C56.1792 48.3691 53.404 51.2418 53.404 54.7854C53.404 55.8536 53.6561 56.8608 54.1022 57.7468H51.7521C52.1982 56.8608 52.4503 55.8536 52.4503 54.7854C52.4503 51.2418 49.6751 48.3691 46.2517 48.3691C42.8282 48.3691 40.053 51.2418 40.053 54.7854C40.053 55.8536 40.3052 56.8608 40.7512 57.7468H28.1325C26.8157 57.7468 25.7483 58.8517 25.7483 60.2146C25.7483 61.5775 26.8157 62.6824 28.1325 62.6824L67.2318 62.6824V82.4249H64.0756C65.1444 81.272 65.8013 79.7068 65.8013 77.9828C65.8013 74.4392 63.0261 71.5665 59.6026 71.5665C56.1792 71.5665 53.404 74.4392 53.404 77.9828C53.404 79.7068 54.0608 81.272 55.1297 82.4249H50.7246C51.7935 81.272 52.4503 79.7068 52.4503 77.9828C52.4503 74.4392 49.6751 71.5665 46.2517 71.5665C42.8282 71.5665 40.053 74.4392 40.053 77.9828C40.053 79.7068 40.7099 81.272 41.7787 82.4249H28.1325C26.8157 82.4249 25.7483 83.5298 25.7483 84.8927C25.7483 86.2556 26.8157 87.3605 28.1325 87.3605H67.2318V105.622C67.2318 106.985 66.1644 108.09 64.8477 108.09ZM15.2583 7.40343C15.2583 6.53813 15.4017 5.7075 15.6653 4.93562H9.53642C8.21972 4.93562 7.15232 6.0405 7.15232 7.40343V105.622C7.15232 106.985 8.21972 108.09 9.53642 108.09H15.6653C15.4017 107.318 15.2583 106.488 15.2583 105.622V7.40343ZM59.6026 29.1202C58.8126 29.1202 58.1722 29.7831 58.1722 30.6009C58.1722 31.4186 58.8126 32.0815 59.6026 32.0815C60.3927 32.0815 61.0331 31.4186 61.0331 30.6009C61.0331 29.7831 60.3927 29.1202 59.6026 29.1202ZM44.8212 30.6009C44.8212 29.7831 45.4616 29.1202 46.2517 29.1202C47.0417 29.1202 47.6821 29.7831 47.6821 30.6009C47.6821 31.4186 47.0417 32.0815 46.2517 32.0815C45.4616 32.0815 44.8212 31.4186 44.8212 30.6009ZM59.6026 53.3047C58.8126 53.3047 58.1722 53.9676 58.1722 54.7854C58.1722 55.6032 58.8126 56.2661 59.6026 56.2661C60.3927 56.2661 61.0331 55.6032 61.0331 54.7854C61.0331 53.9676 60.3927 53.3047 59.6026 53.3047ZM44.8212 54.7854C44.8212 53.9676 45.4616 53.3047 46.2517 53.3047C47.0417 53.3047 47.6821 53.9676 47.6821 54.7854C47.6821 55.6032 47.0417 56.2661 46.2517 56.2661C45.4616 56.2661 44.8212 55.6032 44.8212 54.7854ZM59.6026 76.5021C58.8126 76.5021 58.1722 77.1651 58.1722 77.9828C58.1722 78.8006 58.8126 79.4635 59.6026 79.4635C60.3927 79.4635 61.0331 78.8006 61.0331 77.9828C61.0331 77.1651 60.3927 76.5021 59.6026 76.5021ZM44.8212 77.9828C44.8212 77.1651 45.4616 76.5021 46.2517 76.5021C47.0417 76.5021 47.6821 77.1651 47.6821 77.9828C47.6821 78.8006 47.0417 79.4635 46.2517 79.4635C45.4616 79.4635 44.8212 78.8006 44.8212 77.9828Z" fill="#2583F0"/>
</svg>
