<svg width="59" height="59" viewBox="0 0 59 59" fill="none" xmlns="http://www.w3.org/2000/svg">
<path d="M28.7114 2.08966C28.7114 0.93557 29.6555 0 30.8201 0C46.398 0 59 12.6021 59 28.1154C59 29.2694 58.0559 30.205 56.8913 30.205C55.7267 30.205 54.7826 29.2694 54.7826 28.1154C54.7826 14.8814 44.0397 4.17931 30.8201 4.17931C29.6555 4.17931 28.7114 3.24374 28.7114 2.08966Z" fill="white"/>
<path d="M28.7114 2.08966C28.7114 0.93557 29.6555 0 30.8201 0C46.398 0 59 12.6021 59 28.1154C59 29.2694 58.0559 30.205 56.8913 30.205C55.7267 30.205 54.7826 29.2694 54.7826 28.1154C54.7826 14.8814 44.0397 4.17931 30.8201 4.17931C29.6555 4.17931 28.7114 3.24374 28.7114 2.08966Z" fill="white"/>
<path d="M28.7114 16.1473C28.7114 14.9932 29.6555 14.0577 30.8201 14.0577C38.5805 14.0577 44.8142 20.3832 44.8142 28.1154C44.8142 29.2694 43.8701 30.205 42.7055 30.205C41.5409 30.205 40.5968 29.2694 40.5968 28.1154C40.5968 22.628 36.1879 18.237 30.8201 18.237C29.6555 18.237 28.7114 17.3014 28.7114 16.1473Z" fill="white"/>
<path d="M28.7114 16.1473C28.7114 14.9932 29.6555 14.0577 30.8201 14.0577C38.5805 14.0577 44.8142 20.3832 44.8142 28.1154C44.8142 29.2694 43.8701 30.205 42.7055 30.205C41.5409 30.205 40.5968 29.2694 40.5968 28.1154C40.5968 22.628 36.1879 18.237 30.8201 18.237C29.6555 18.237 28.7114 17.3014 28.7114 16.1473Z" fill="white"/>
<path fill-rule="evenodd" clip-rule="evenodd" d="M18.2561 1.55905C17.9339 0.602503 16.9677 0.0121614 15.9587 0.155419L1.95514 2.14363C0.856951 2.29955 0.0751228 3.26534 0.139719 4.34298C-0.823643 17.3921 3.18849 30.7849 12.3714 41.4775C12.4091 41.5283 12.4493 41.578 12.4923 41.6262C12.5769 41.7212 12.6619 41.8158 12.7471 41.9101C12.8309 42.0056 12.9151 42.1008 12.9998 42.1958C13.0427 42.244 13.0874 42.2898 13.1337 42.3331C22.7019 52.6886 35.6151 58.2943 48.801 58.9648C49.872 59.162 50.936 58.5129 51.2283 57.4524L54.9554 43.9289C55.2239 42.9545 54.7526 41.9311 53.8347 41.4958L39.8421 34.8587C38.9981 34.4583 37.987 34.6573 37.3585 35.3476L31.6702 41.5946C28.1449 39.5974 24.7767 36.971 21.9718 33.8398C19.1842 30.6935 16.9719 27.0557 15.4091 23.3416L22.3697 18.5227C23.1387 17.9903 23.4634 17.0208 23.1672 16.1412L18.2561 1.55905ZM47.613 54.6926C35.8317 53.7481 24.404 48.5107 15.9185 39.1355C7.58295 29.6292 3.75544 17.7428 4.27035 6.04079L14.8041 4.54521L18.6596 15.9929L11.6614 20.8378C11.5334 20.9227 11.4167 21.0202 11.3124 21.1279C11.0705 21.3769 10.9 21.6759 10.8062 21.9952C10.7262 22.2663 10.7008 22.5547 10.7379 22.8436C10.7596 23.0145 10.8028 23.1841 10.8683 23.3482C12.5913 27.9611 15.2294 32.5546 18.699 36.4993C18.7114 36.514 18.724 36.5286 18.7369 36.5431C18.7581 36.5668 18.7793 36.5905 18.8005 36.6142C18.8216 36.638 18.8427 36.6618 18.8638 36.6855C18.8767 36.7 18.8898 36.7143 18.903 36.7283C22.4227 40.6291 26.6953 43.7927 31.1007 46.0589C31.2569 46.1437 31.4213 46.2072 31.5898 46.2496C31.8745 46.3219 32.1664 46.3327 32.4477 46.2877C32.7791 46.2351 33.0997 46.1045 33.379 45.8974C33.4998 45.8082 33.6119 45.7056 33.7127 45.5902L39.4317 39.3094L50.4166 44.5199L47.613 54.6926Z" fill="white"/>
<path fill-rule="evenodd" clip-rule="evenodd" d="M18.2561 1.55905C17.9339 0.602503 16.9677 0.0121614 15.9587 0.155419L1.95514 2.14363C0.856951 2.29955 0.0751228 3.26534 0.139719 4.34298C-0.823643 17.3921 3.18849 30.7849 12.3714 41.4775C12.4091 41.5283 12.4493 41.578 12.4923 41.6262C12.5769 41.7212 12.6619 41.8158 12.7471 41.9101C12.8309 42.0056 12.9151 42.1008 12.9998 42.1958C13.0427 42.244 13.0874 42.2898 13.1337 42.3331C22.7019 52.6886 35.6151 58.2943 48.801 58.9648C49.872 59.162 50.936 58.5129 51.2283 57.4524L54.9554 43.9289C55.2239 42.9545 54.7526 41.9311 53.8347 41.4958L39.8421 34.8587C38.9981 34.4583 37.987 34.6573 37.3585 35.3476L31.6702 41.5946C28.1449 39.5974 24.7767 36.971 21.9718 33.8398C19.1842 30.6935 16.9719 27.0557 15.4091 23.3416L22.3697 18.5227C23.1387 17.9903 23.4634 17.0208 23.1672 16.1412L18.2561 1.55905ZM47.613 54.6926C35.8317 53.7481 24.404 48.5107 15.9185 39.1355C7.58295 29.6292 3.75544 17.7428 4.27035 6.04079L14.8041 4.54521L18.6596 15.9929L11.6614 20.8378C11.5334 20.9227 11.4167 21.0202 11.3124 21.1279C11.0705 21.3769 10.9 21.6759 10.8062 21.9952C10.7262 22.2663 10.7008 22.5547 10.7379 22.8436C10.7596 23.0145 10.8028 23.1841 10.8683 23.3482C12.5913 27.9611 15.2294 32.5546 18.699 36.4993C18.7114 36.514 18.724 36.5286 18.7369 36.5431C18.7581 36.5668 18.7793 36.5905 18.8005 36.6142C18.8216 36.638 18.8427 36.6618 18.8638 36.6855C18.8767 36.7 18.8898 36.7143 18.903 36.7283C22.4227 40.6291 26.6953 43.7927 31.1007 46.0589C31.2569 46.1437 31.4213 46.2072 31.5898 46.2496C31.8745 46.3219 32.1664 46.3327 32.4477 46.2877C32.7791 46.2351 33.0997 46.1045 33.379 45.8974C33.4998 45.8082 33.6119 45.7056 33.7127 45.5902L39.4317 39.3094L50.4166 44.5199L47.613 54.6926Z" fill="white"/>
</svg>
