<svg width="450" height="354" viewBox="0 0 450 354" fill="none" xmlns="http://www.w3.org/2000/svg">
<path fill-rule="evenodd" clip-rule="evenodd" d="M63.1703 0C28.2823 0 0 28.2823 0 63.1703V290.3C0 325.188 28.2823 353.47 63.1704 353.47H386.83C421.718 353.47 450 325.188 450 290.3V63.1703C450 28.2823 421.718 0 386.83 0H63.1703ZM46.8454 63.1703C46.8454 54.1543 54.1543 46.8454 63.1703 46.8454H386.83C395.846 46.8454 403.155 54.1543 403.155 63.1703V66.949L233.464 168.505C228.285 171.604 221.817 171.593 216.649 168.475L46.8454 66.0412V63.1703ZM46.8454 120.75V290.3C46.8454 299.316 54.1543 306.625 63.1704 306.625H386.83C395.846 306.625 403.155 299.316 403.155 290.3V121.543L257.521 208.701C237.478 220.696 212.452 220.653 192.451 208.587L46.8454 120.75Z" fill="#fff"/>
</svg>
