<svg width="538" height="460" viewBox="0 0 538 460" fill="none" xmlns="http://www.w3.org/2000/svg">
<path fill-rule="evenodd" clip-rule="evenodd" d="M272.029 459.133H433.949L519.799 310.437C556.793 246.361 534.839 164.426 470.762 127.431L282.228 18.5809C218.151 -18.4138 136.217 3.54051 99.2219 67.6172L0 239.474V404.61C10.4168 418.224 23.6364 430.052 39.4078 439.158L74.0068 459.133H78.2641C90.1247 419.701 96.4877 378.906 89.7679 344.947C82.0959 306.176 80.4791 287.888 93.0465 258.418C123.304 187.466 151.552 166.752 176.633 151.939C188.441 144.966 194.175 153.47 192.058 160.845C192.058 160.845 180.979 214.624 171.011 261.676C169.852 267.148 167.123 282.028 178.801 290.736C179.531 291.28 180.336 291.892 181.215 292.56C197.918 305.263 241.544 338.443 312.08 317.333C326.335 313.067 328.625 300.842 332.736 278.896L332.736 278.893C333.069 277.116 333.414 275.275 333.778 273.369L348.996 202.33C350.629 190.992 360.114 182.222 370.403 195.04C383.264 211.062 424.05 302.118 387.874 364.777C368.971 397.517 348.27 409.584 325.801 422.681C320.457 425.796 315.013 428.97 309.469 432.493C307.871 433.509 306.153 434.553 304.309 435.674C296.165 440.623 285.563 447.065 272.029 459.133Z" fill="url(#paint0_linear)" fill-opacity="0.1"/>
<defs>
<linearGradient id="paint0_linear" x1="650.742" y1="299.467" x2="47.7609" y2="193.191" gradientUnits="userSpaceOnUse">
<stop stop-color="white"/>
<stop offset="1" stop-color="white" stop-opacity="0"/>
</linearGradient>
</defs>
</svg>
