<svg width="445" height="111" viewBox="0 0 445 111" fill="none" xmlns="http://www.w3.org/2000/svg">
<path d="M150.251 104.677H144.29L142.951 108.591H141.016L146.449 93.594H148.091L153.534 108.591H151.609L150.251 104.677ZM144.856 103.05H149.694L147.27 96.0351L144.856 103.05Z" fill="white"/>
<path d="M165.631 102.72V108.591H163.755V93.594H169.003C170.56 93.594 171.778 94.0129 172.657 94.8506C173.543 95.6884 173.986 96.7973 173.986 98.1776C173.986 99.6333 173.553 100.756 172.687 101.546C171.827 102.329 170.592 102.72 168.983 102.72H165.631ZM165.631 101.103H169.003C170.006 101.103 170.775 100.856 171.309 100.361C171.843 99.8599 172.11 99.1389 172.11 98.1982C172.11 97.3055 171.843 96.5913 171.309 96.0557C170.775 95.5201 170.042 95.242 169.11 95.2214H165.631V101.103Z" fill="white"/>
<path d="M186.562 102.72V108.591H184.686V93.594H189.934C191.491 93.594 192.709 94.0129 193.589 94.8506C194.475 95.6884 194.918 96.7973 194.918 98.1776C194.918 99.6333 194.484 100.756 193.618 101.546C192.758 102.329 191.523 102.72 189.914 102.72H186.562ZM186.562 101.103H189.934C190.937 101.103 191.706 100.856 192.24 100.361C192.774 99.8599 193.041 99.1389 193.041 98.1982C193.041 97.3055 192.774 96.5913 192.24 96.0557C191.706 95.5201 190.973 95.242 190.041 95.2214H186.562V101.103Z" fill="white"/>
<path d="M207.503 106.974H214.246V108.591H205.617V93.594H207.503V106.974Z" fill="white"/>
<path d="M226.705 108.591H224.829V93.594H226.705V108.591Z" fill="white"/>
<path d="M246.483 104.677H240.522L239.183 108.591H237.248L242.682 93.594H244.323L249.767 108.591H247.841L246.483 104.677ZM241.089 103.05H245.926L243.503 96.0351L241.089 103.05Z" fill="white"/>
<path d="M270.922 108.591H269.036L261.873 97.0343V108.591H259.987V93.594H261.873L269.056 105.202V93.594H270.922V108.591Z" fill="white"/>
<path d="M293.026 103.832C292.85 105.419 292.293 106.644 291.355 107.51C290.424 108.368 289.183 108.797 287.632 108.797C285.951 108.797 284.603 108.162 283.586 106.891C282.577 105.621 282.072 103.922 282.072 101.793V100.351C282.072 98.9569 282.306 97.7312 282.775 96.6737C283.251 95.6163 283.922 94.806 284.788 94.2429C285.655 93.673 286.658 93.388 287.798 93.388C289.31 93.388 290.521 93.8343 291.433 94.727C292.346 95.6128 292.876 96.842 293.026 98.4145H291.14C290.977 97.2197 290.622 96.3544 290.075 95.8188C289.534 95.2832 288.775 95.0154 287.798 95.0154C286.6 95.0154 285.658 95.4824 284.974 96.4162C284.297 97.3501 283.958 98.6788 283.958 100.402V101.855C283.958 103.482 284.28 104.777 284.925 105.738C285.57 106.699 286.472 107.18 287.632 107.18C288.674 107.18 289.473 106.933 290.026 106.438C290.587 105.937 290.958 105.068 291.14 103.832H293.026Z" fill="white"/>
<path d="M311.944 101.659H305.778V106.974H312.941V108.591H303.902V93.594H312.844V95.2214H305.778V100.042H311.944V101.659Z" fill="white"/>
<path d="M342.071 102.524H338.728V108.591H336.842V93.594H341.553C343.155 93.594 344.387 93.9785 345.246 94.7476C346.113 95.5167 346.546 96.636 346.546 98.1055C346.546 99.0393 346.305 99.8531 345.823 100.547C345.347 101.24 344.683 101.759 343.83 102.102L347.172 108.467V108.591H345.159L342.071 102.524ZM338.728 100.907H341.611C342.543 100.907 343.282 100.653 343.83 100.145C344.383 99.6368 344.66 98.9569 344.66 98.1055C344.66 97.1785 344.396 96.4677 343.869 95.9733C343.347 95.4789 342.592 95.2283 341.601 95.2214H338.728V100.907Z" fill="white"/>
<path d="M365.533 101.659H359.366V106.974H366.529V108.591H357.49V93.594H366.432V95.2214H359.366V100.042H365.533V101.659Z" fill="white"/>
<path d="M379.047 102.72V108.591H377.171V93.594H382.418C383.975 93.594 385.194 94.0129 386.073 94.8506C386.959 95.6884 387.402 96.7973 387.402 98.1776C387.402 99.6333 386.969 100.756 386.102 101.546C385.242 102.329 384.008 102.72 382.399 102.72H379.047ZM379.047 101.103H382.418C383.422 101.103 384.19 100.856 384.724 100.361C385.259 99.8599 385.526 99.1389 385.526 98.1982C385.526 97.3055 385.259 96.5913 384.724 96.0557C384.19 95.5201 383.457 95.242 382.526 95.2214H379.047V101.103Z" fill="white"/>
<path d="M404.61 104.677H398.649L397.31 108.591H395.375L400.809 93.594H402.45L407.893 108.591H405.968L404.61 104.677ZM399.216 103.05H404.053L401.63 96.0351L399.216 103.05Z" fill="white"/>
<path d="M420.127 108.591H418.251V93.594H420.127V108.591Z" fill="white"/>
<path d="M437.091 102.524H433.749V108.591H431.863V93.594H436.573C438.176 93.594 439.407 93.9785 440.267 94.7476C441.134 95.5167 441.567 96.636 441.567 98.1055C441.567 99.0393 441.326 99.8531 440.844 100.547C440.368 101.24 439.704 101.759 438.85 102.102L442.192 108.467V108.591H440.179L437.091 102.524ZM433.749 100.907H436.632C437.563 100.907 438.303 100.653 438.85 100.145C439.404 99.6368 439.681 98.9569 439.681 98.1055C439.681 97.1785 439.417 96.4677 438.889 95.9733C438.368 95.4789 437.612 95.2283 436.622 95.2214H433.749V100.907Z" fill="white"/>
<path d="M208.644 43.7947V69.4865C208.644 72.117 208.173 72.579 205.53 72.5815H197.347C195.14 72.5815 194.481 71.9754 194.481 69.8143C194.468 52.4381 194.468 35.0619 194.481 17.6856C194.481 15.5544 195.118 14.9706 197.251 14.9533C200.142 14.9384 203.035 14.9384 205.929 14.9533C208.198 14.9533 208.714 15.45 208.716 17.7254C208.728 26.4127 208.728 35.1008 208.716 43.7897L208.644 43.7947Z" fill="white"/>
<path d="M185.55 35.615C185.55 37.2908 185.555 38.9666 185.56 40.6425C185.573 44.4314 185.585 48.2203 185.535 52.0092C185.438 59.3568 182.611 65.3754 176.422 69.5138C171.359 72.8994 165.646 73.7365 159.693 73.1255C155.909 72.738 152.326 71.6574 149.145 69.4864C143.491 65.6288 140.677 60.1641 140.159 53.4201C140.102 52.6749 140.082 51.9297 140.082 51.1845V18.2843C140.082 17.7469 140.116 17.2101 140.184 16.6771C140.32 15.6165 140.975 15.0104 142.009 14.998C145.601 14.9632 149.194 14.9632 152.787 14.998C153.888 15.0129 154.523 15.6885 154.615 16.8063C154.659 17.3403 154.672 17.8794 154.672 18.4184V49.2197C154.665 50.4591 154.76 51.6971 154.957 52.9208C155.515 56.294 157.863 58.5594 161.257 58.9718C162.611 59.1691 163.989 59.1109 165.321 58.8004C168.53 57.9782 170.407 55.7053 170.834 52.0936C170.926 51.1469 170.963 50.1956 170.945 49.2445V18.5798C170.931 18.042 170.946 17.5038 170.992 16.9678C171.148 15.604 171.709 14.9955 173.063 14.9806C176.491 14.9309 179.919 14.9309 183.348 14.9806C184.836 15.0004 185.421 15.6438 185.532 17.1218C185.556 17.4516 185.555 17.7831 185.553 18.1149C185.553 18.1978 185.552 18.2808 185.552 18.3637V35.6199L185.55 35.615Z" fill="white"/>
<path fill-rule="evenodd" clip-rule="evenodd" d="M323.587 52.1607V69.5485C323.587 72.0723 323.063 72.579 320.507 72.584H311.707C310.581 72.584 309.552 72.425 309.396 70.9321C309.323 70.2406 308.985 70.5014 308.698 70.723C308.644 70.7649 308.592 70.8053 308.543 70.8377C306.202 72.4307 303.439 73.287 300.609 73.2969C293.279 73.3341 287.611 70.1795 284.112 63.7683C280.028 56.2841 280.001 48.4869 283.889 40.9158C288.885 31.186 300.145 29.3653 307.095 32.7584C307.399 32.8883 307.687 33.0551 307.951 33.2552C308.776 33.9557 309.411 34.3904 309.783 32.813C309.971 32.0182 310.904 31.8492 311.648 31.8418C314.911 31.807 318.176 31.7722 321.437 31.8617C323.051 31.9064 323.574 32.6267 323.579 34.4276C323.592 38.7434 323.59 43.0778 323.588 47.4153V47.4177C323.587 48.9981 323.587 50.5802 323.587 52.1607ZM302.089 59.9778C306.344 60.025 309.309 56.925 309.404 52.3296C309.498 47.7815 306.579 44.5597 302.31 44.4927C297.993 44.4256 294.893 47.625 294.871 52.1707C294.861 56.6344 297.906 59.9405 302.091 59.9753L302.089 59.9778Z" fill="white"/>
<path d="M219.987 49.9581C219.989 50.8503 219.991 51.7724 219.991 52.737C220.018 53.7104 220.002 54.745 219.985 55.8186C219.952 57.8433 219.917 60.0073 220.172 62.1612C220.737 66.7342 222.813 70.2267 227.432 71.7171C230.793 72.8023 234.239 72.6771 237.679 72.5521C238.444 72.5243 239.208 72.4966 239.971 72.4821C241.079 72.4598 241.63 71.6028 241.645 70.5198C241.675 68.2842 241.694 66.0486 241.645 63.8131C241.615 62.4369 240.96 61.8134 239.557 61.6917C239.198 61.6608 238.836 61.6579 238.474 61.6549C238.051 61.6515 237.627 61.648 237.209 61.5998C235.808 61.4409 234.851 60.7131 234.466 59.2947C234.265 58.5773 234.16 57.8365 234.152 57.0914C234.146 55.3381 234.145 53.5844 234.145 51.8307C234.144 49.0748 234.143 46.3188 234.122 43.5637C234.114 42.667 234.474 42.4186 235.3 42.4384C236.787 42.4732 238.275 42.4832 239.763 42.4211C241.414 42.349 242.002 41.7777 242.054 40.1333C242.109 38.1461 242.106 36.159 242.054 34.1718C242.009 32.438 241.464 31.884 239.728 31.7996C238.288 31.7275 236.837 31.7275 235.394 31.7822C234.439 31.817 234.092 31.504 234.112 30.5104C234.168 27.7705 234.149 25.0351 234.13 22.2999L234.127 21.8165C234.114 19.8392 233.497 19.1959 231.531 19.1735C228.6 19.147 225.668 19.147 222.736 19.1735C220.636 19.1909 220.011 19.8218 219.983 21.9407C219.969 23.5432 219.973 25.1435 219.978 26.7431V26.745C219.981 27.5445 219.983 28.3449 219.983 29.1442V29.1515C219.981 31.6307 219.981 31.6308 217.472 31.7772C215.597 31.8865 215.014 32.4876 214.98 34.4127C214.968 35.3216 214.972 36.2315 214.976 37.1419C214.978 37.5973 214.98 38.0533 214.98 38.5088C214.982 42.1751 215.119 42.3565 218.803 42.4235C219.733 42.4384 220.006 42.7688 220.006 43.6655C219.977 45.7061 219.982 47.7399 219.987 49.9581Z" fill="white"/>
<path d="M269.673 33.208C267.236 34.522 265.314 36.4247 263.688 38.6727C263.651 38.6241 263.617 38.5848 263.588 38.5511C263.528 38.4814 263.488 38.4357 263.492 38.3821C263.479 37.8147 263.471 37.2456 263.463 36.6758C263.452 35.8811 263.441 35.0852 263.417 34.291C263.363 32.5298 262.775 31.8443 261.04 31.807C257.899 31.7441 254.758 31.7441 251.617 31.807C249.968 31.8393 249.408 32.4504 249.294 34.0923C249.246 34.7934 249.253 35.4999 249.259 36.2059C249.262 36.4529 249.264 36.6998 249.264 36.9464C249.254 47.8328 249.254 58.7201 249.264 69.6082C249.267 71.9754 249.862 72.5691 252.183 72.5691C253.078 72.5691 253.973 72.5693 254.869 72.5696C256.66 72.5702 258.452 72.5707 260.241 72.5691C262.924 72.5666 263.42 72.0723 263.42 69.3722C263.425 67.8854 263.42 66.3978 263.416 64.9101C263.405 61.5536 263.394 58.1961 263.499 54.8434C263.668 49.4582 266.49 46.2116 271.697 44.9224C272.466 44.7365 273.246 44.6616 274.024 44.5869C274.681 44.5238 275.337 44.4608 275.986 44.3312C277.117 44.1027 277.722 43.4469 277.722 42.2695C277.721 41.3886 277.723 40.5076 277.725 39.6267C277.73 37.5269 277.735 35.427 277.702 33.3272C277.68 31.9238 276.827 31.2084 275.423 31.3748C273.408 31.6158 271.457 32.2378 269.673 33.208Z" fill="white"/>
<path d="M394.573 22.5802C394.949 21.6381 395.138 20.6286 395.13 19.6106C395.157 15.3958 391.994 12.2068 387.739 12.1409C383.578 12.0953 380.245 15.3375 380.198 19.4865C380.174 20.5042 380.347 21.5167 380.708 22.465C381.068 23.4132 381.609 24.2783 382.298 25.0098C382.987 25.7412 383.811 26.3244 384.722 26.7254C385.633 27.1264 386.612 27.3372 387.603 27.3454C388.593 27.3536 389.576 27.1592 390.493 26.7734C391.41 26.3876 392.243 25.8181 392.943 25.0982C393.644 24.3783 394.198 23.5224 394.573 22.5802Z" fill="white"/>
<path d="M331.529 18.0936V43.7954C331.524 52.5746 331.536 61.3428 331.566 70.1001C331.568 72.7192 332.076 73.246 334.578 73.246H343.08C345.521 73.246 346.063 72.704 346.063 70.2065L346.067 68.1645C346.077 63.569 346.087 58.9739 346.046 54.3806C346.036 53.3092 346.381 53.0407 347.384 53.0407C352.218 53.0699 357.053 53.0649 361.888 53.0598C363.748 53.0578 365.608 53.0559 367.468 53.0559C369.43 53.0559 369.985 52.5214 370.012 50.5229C370.029 48.6676 370.023 46.8122 370.018 44.9569V44.9504C370.015 44.0217 370.012 43.0929 370.012 42.1642C370.002 39.5401 369.549 39.0816 366.965 39.0816L363.835 39.0786C358.351 39.073 352.861 39.0674 347.375 39.0993C346.359 39.1069 346.011 38.7928 346.036 37.7366C346.08 35.9333 346.071 34.1301 346.063 32.3268C346.059 31.5971 346.056 30.8674 346.056 30.1377C346.058 28.5015 346.061 28.5015 347.712 28.5015H368.289C368.824 28.5015 369.359 28.4989 369.889 28.4483C370.917 28.3495 371.602 27.7542 371.615 26.6752C371.654 23.2101 371.639 19.7501 371.615 16.2901C371.607 15.3048 371.003 14.7475 370.091 14.5905C369.563 14.5161 369.029 14.4864 368.496 14.5018H334.723C334.272 14.4908 333.82 14.506 333.37 14.5474C332.349 14.6741 331.699 15.2187 331.61 16.3205C331.563 16.9132 331.529 17.5034 331.529 18.0936Z" fill="white"/>
<path d="M434.787 73.2668C435.362 73.2716 435.937 73.2764 436.512 73.2764C437.019 73.2764 437.525 73.2799 438.032 73.2833C439.086 73.2906 440.144 73.2978 441.206 73.2739C441.394 73.2698 441.59 73.2804 441.789 73.291C442.59 73.3341 443.426 73.379 443.878 72.4735C444.354 71.5207 443.803 70.7571 443.278 70.0307C443.181 69.8958 443.085 69.7622 442.996 69.6289L442.488 68.8688C439.054 63.7273 435.621 58.5894 432.149 53.4814C431.636 52.7291 431.641 52.2352 432.149 51.488C435.87 45.9797 439.578 40.462 443.274 34.9351L443.358 34.8105C443.824 34.1181 444.33 33.368 443.883 32.4984C443.465 31.6795 442.618 31.6836 441.844 31.6874L441.689 31.6879C440.161 31.6822 438.633 31.6832 437.105 31.6841C435.224 31.6853 433.342 31.6864 431.461 31.6752C429.987 31.6651 428.865 32.2224 428.037 33.5116C427.473 34.3895 426.886 35.2518 426.299 36.1135C425.566 37.1887 424.834 38.2629 424.15 39.3653C423.526 40.3633 423.196 40.2214 422.621 39.3374C421.993 38.3658 421.335 37.4174 420.678 36.4701C419.999 35.4911 419.321 34.5131 418.677 33.5116C418.339 32.9307 417.855 32.4536 417.276 32.1301C416.697 31.8067 416.044 31.6487 415.386 31.6727H404.911C404.501 31.6754 404.093 31.7307 403.696 31.8373C402.661 32.1134 402.456 32.8531 402.791 33.7928C402.951 34.1816 403.157 34.5484 403.405 34.8845C404.411 36.369 405.415 37.8548 406.42 39.3409L406.455 39.3922L406.457 39.3954L406.459 39.399C409.213 43.4717 411.968 47.5463 414.745 51.6019C415.216 52.2782 415.176 52.6937 414.723 53.3548C410.958 58.885 407.207 64.4263 403.472 69.9785C403.42 70.0558 403.366 70.1336 403.311 70.212C402.859 70.8634 402.375 71.5614 402.782 72.3975C403.216 73.2906 404.073 73.276 404.889 73.2621C404.989 73.2604 405.09 73.2587 405.188 73.2587C406.536 73.2647 407.884 73.2611 409.231 73.2574C411.253 73.252 413.274 73.2465 415.295 73.2739C416.796 73.2941 417.866 72.6862 418.694 71.4197C419.378 70.3661 420.091 69.3315 420.804 68.2966C421.444 67.3685 422.084 66.4402 422.703 65.4977C423.228 64.6998 423.558 64.6593 424.093 65.4977C424.878 66.7388 425.698 67.9587 426.518 69.1793L426.519 69.1808L426.521 69.184L426.523 69.1864C427.03 69.9414 427.538 70.6968 428.037 71.4577C428.833 72.671 429.856 73.322 431.336 73.2764C432.486 73.2477 433.637 73.2573 434.787 73.2668Z" fill="white"/>
<path d="M380.671 52.4834V34.8921C380.671 32.1489 381.14 31.6828 383.859 31.6753L384.548 31.6733C387.035 31.6661 389.511 31.659 391.994 31.6753C394.195 31.6955 394.792 32.2832 394.787 34.5299C394.759 46.553 394.716 58.5752 394.659 70.5965C394.659 72.7521 394.116 73.2562 391.991 73.2663C390.157 73.2747 388.323 73.2719 386.489 73.2691C385.573 73.2677 384.657 73.2663 383.741 73.2663C381.145 73.2663 380.681 72.7825 380.679 70.0646C380.671 64.2068 380.668 58.3464 380.671 52.4834Z" fill="white"/>
<path d="M30.5282 0C13.6679 0 0 13.668 0 30.5282V80.1366C0 96.9968 13.668 110.665 30.5282 110.665H35.7441C34.4644 91.1273 30.5797 84.036 28.2567 79.7953C28.0204 79.364 27.8003 78.9621 27.6007 78.5796C26.9081 77.2526 26.1953 76.0061 25.4956 74.7824C22.5538 69.6377 19.8433 64.8977 19.8433 56.283C19.8433 39.7958 38.267 26.4733 42.6305 24.7769C46.1213 23.4197 46.994 26.231 46.0243 28.6545L40.9336 44.4076C40.7882 44.8254 40.6464 45.2283 40.5095 45.6172C38.8203 50.4164 37.8793 53.0898 40.2063 55.5559C51.7211 67.7584 64.111 66.1813 68.8545 65.5775C69.1042 65.5457 69.3327 65.5167 69.5387 65.4924C72.8356 65.1047 73.9924 61.8571 74.3871 60.6453C77.7809 50.2241 81.722 38.3487 81.722 38.3487C82.1444 36.6522 84.2451 35.6272 85.7806 38.3487C89.0425 44.1296 92.2571 51.4359 90.1441 68.8854C89.2665 76.1331 86.8638 79.5579 80.9323 86.335C75.6451 92.376 72.2252 101.358 70.0794 110.665H80.1366C96.9968 110.665 110.665 96.9968 110.665 80.1366V30.5282C110.665 13.6679 96.9968 0 80.1366 0H30.5282Z" fill="white"/>
</svg>
