<svg width="209" height="53" viewBox="0 0 209 53" fill="none" xmlns="http://www.w3.org/2000/svg">
<path d="M70.7165 49.2669H67.9109L67.2808 51.1091H66.3701L68.9274 44.0506H69.7L72.2619 51.1091H71.3558L70.7165 49.2669ZM68.1777 48.5009H70.4543L69.3137 45.1996L68.1777 48.5009Z" fill="#003168"/>
<path d="M77.9555 48.3458V51.1091H77.0724V44.0506H79.5423C80.2751 44.0506 80.8485 44.2478 81.2624 44.6421C81.6794 45.0364 81.8879 45.5583 81.8879 46.2079C81.8879 46.8931 81.684 47.4215 81.2762 47.7932C80.8715 48.1616 80.2904 48.3458 79.5331 48.3458H77.9555ZM77.9555 47.5847H79.5423C80.0145 47.5847 80.3763 47.4684 80.6277 47.2357C80.8791 46.9997 81.0049 46.6604 81.0049 46.2176C81.0049 45.7975 80.8791 45.4614 80.6277 45.2093C80.3763 44.9572 80.0313 44.8263 79.5929 44.8166H77.9555V47.5847Z" fill="#003168"/>
<path d="M87.8069 48.3458V51.1091H86.9238V44.0506H89.3937C90.1265 44.0506 90.6999 44.2478 91.1138 44.6421C91.5308 45.0364 91.7393 45.5583 91.7393 46.2079C91.7393 46.8931 91.5354 47.4215 91.1276 47.7932C90.7229 48.1616 90.1418 48.3458 89.3845 48.3458H87.8069ZM87.8069 47.5847H89.3937C89.8659 47.5847 90.2277 47.4684 90.4791 47.2357C90.7306 46.9997 90.8563 46.6604 90.8563 46.2176C90.8563 45.7975 90.7306 45.4614 90.4791 45.2093C90.2277 44.9572 89.8827 44.8263 89.4443 44.8166H87.8069V47.5847Z" fill="#003168"/>
<path d="M97.6629 50.348H100.836V51.1091H96.7753V44.0506H97.6629V50.348Z" fill="#003168"/>
<path d="M106.7 51.1091H105.817V44.0506H106.7V51.1091Z" fill="#003168"/>
<path d="M116.009 49.2669H113.203L112.573 51.1091H111.663L114.22 44.0506H114.993L117.554 51.1091H116.648L116.009 49.2669ZM113.47 48.5009H115.747L114.606 45.1996L113.47 48.5009Z" fill="#003168"/>
<path d="M127.512 51.1091H126.624L123.253 45.6698V51.1091H122.365V44.0506H123.253L126.633 49.5141V44.0506H127.512V51.1091Z" fill="#003168"/>
<path d="M137.915 48.8694C137.832 49.6159 137.57 50.1928 137.128 50.6001C136.69 51.004 136.106 51.206 135.376 51.206C134.585 51.206 133.95 50.9071 133.472 50.3092C132.997 49.7113 132.759 48.9114 132.759 47.9095V47.2308C132.759 46.5747 132.869 45.9978 133.09 45.5001C133.314 45.0024 133.63 44.6211 134.038 44.356C134.445 44.0878 134.918 43.9537 135.454 43.9537C136.166 43.9537 136.736 44.1637 137.165 44.5839C137.594 45.0008 137.844 45.5793 137.915 46.3194H137.027C136.951 45.7571 136.783 45.3499 136.526 45.0978C136.271 44.8457 135.914 44.7196 135.454 44.7196C134.89 44.7196 134.447 44.9394 134.125 45.3789C133.806 45.8185 133.647 46.4438 133.647 47.2551V47.9386C133.647 48.7046 133.798 49.3138 134.102 49.7662C134.406 50.2187 134.83 50.4449 135.376 50.4449C135.867 50.4449 136.242 50.3286 136.503 50.0959C136.767 49.86 136.941 49.4511 137.027 48.8694H137.915Z" fill="#003168"/>
<path d="M146.819 47.8465H143.917V50.348H147.288V51.1091H143.034V44.0506H147.242V44.8166H143.917V47.0854H146.819V47.8465Z" fill="#003168"/>
<path d="M160.998 48.2537H159.425V51.1091H158.537V44.0506H160.754C161.508 44.0506 162.088 44.2316 162.493 44.5936C162.9 44.9556 163.104 45.4824 163.104 46.174C163.104 46.6135 162.991 46.9965 162.764 47.3229C162.54 47.6493 162.227 47.8933 161.826 48.0549L163.399 51.0509V51.1091H162.451L160.998 48.2537ZM159.425 47.4926H160.782C161.22 47.4926 161.568 47.373 161.826 47.1339C162.086 46.8947 162.217 46.5747 162.217 46.174C162.217 45.7377 162.093 45.4032 161.844 45.1705C161.599 44.9378 161.243 44.8198 160.777 44.8166H159.425V47.4926Z" fill="#003168"/>
<path d="M172.041 47.8465H169.138V50.348H172.51V51.1091H168.255V44.0506H172.464V44.8166H169.138V47.0854H172.041V47.8465Z" fill="#003168"/>
<path d="M178.401 48.3458V51.1091H177.518V44.0506H179.988C180.721 44.0506 181.294 44.2478 181.708 44.6421C182.125 45.0364 182.333 45.5583 182.333 46.2079C182.333 46.8931 182.13 47.4215 181.722 47.7932C181.317 48.1616 180.736 48.3458 179.979 48.3458H178.401ZM178.401 47.5847H179.988C180.46 47.5847 180.822 47.4684 181.073 47.2357C181.325 46.9997 181.45 46.6604 181.45 46.2176C181.45 45.7975 181.325 45.4614 181.073 45.2093C180.822 44.9572 180.477 44.8263 180.038 44.8166H178.401V47.5847Z" fill="#003168"/>
<path d="M190.433 49.2669H187.627L186.997 51.1091H186.086L188.643 44.0506H189.416L191.978 51.1091H191.072L190.433 49.2669ZM187.894 48.5009H190.17L189.03 45.1996L187.894 48.5009Z" fill="#003168"/>
<path d="M197.736 51.1091H196.853V44.0506H197.736V51.1091Z" fill="#003168"/>
<path d="M205.72 48.2537H204.147V51.1091H203.259V44.0506H205.476C206.231 44.0506 206.81 44.2316 207.215 44.5936C207.623 44.9556 207.827 45.4824 207.827 46.174C207.827 46.6135 207.713 46.9965 207.486 47.3229C207.262 47.6493 206.95 47.8933 206.548 48.0549L208.121 51.0509V51.1091H207.173L205.72 48.2537ZM204.147 47.4926H205.504C205.942 47.4926 206.29 47.373 206.548 47.1339C206.809 46.8947 206.939 46.5747 206.939 46.174C206.939 45.7377 206.815 45.4032 206.566 45.1705C206.321 44.9378 205.965 44.8198 205.499 44.8166H204.147V47.4926Z" fill="#003168"/>
<path d="M98.1998 20.6123V32.7043C98.1998 33.9424 97.978 34.1598 96.734 34.161H92.8828C91.8442 34.161 91.5338 33.8757 91.5338 32.8586C91.5275 24.6804 91.5275 16.5021 91.5338 8.32386C91.5338 7.32078 91.8337 7.04604 92.8373 7.03785C94.1981 7.03084 95.5596 7.03084 96.9219 7.03785C97.9897 7.03785 98.2324 7.27167 98.2336 8.34257C98.2391 12.4313 98.2391 16.5204 98.2336 20.6099L98.1998 20.6123Z" fill="#003168"/>
<path d="M87.3302 16.7624C87.3302 17.5512 87.3327 18.3399 87.3353 19.1287C87.341 20.9119 87.3467 22.6952 87.3232 24.4785C87.2777 27.9367 85.9473 30.7694 83.0344 32.7171C80.6514 34.3106 77.9625 34.7046 75.1605 34.417C73.3796 34.2346 71.6933 33.7261 70.196 32.7043C67.5352 30.8887 66.2106 28.3166 65.9667 25.1425C65.9399 24.7918 65.9305 24.4411 65.9305 24.0903V8.60561C65.9305 8.35272 65.9465 8.10007 65.9784 7.8492C66.0426 7.35 66.3507 7.06474 66.8373 7.05889C68.5279 7.04253 70.219 7.04253 71.9104 7.05889C72.4285 7.06591 72.7273 7.3839 72.7705 7.91C72.7915 8.16136 72.7973 8.41505 72.7973 8.66874V23.1656C72.794 23.749 72.8389 24.3316 72.9315 24.9075C73.1941 26.4952 74.2993 27.5614 75.8969 27.7555C76.5339 27.8483 77.1827 27.821 77.8097 27.6748C79.3198 27.2878 80.2032 26.2181 80.4039 24.5182C80.4475 24.0727 80.465 23.6249 80.4565 23.1773V8.74474C80.4496 8.4916 80.457 8.23829 80.4786 7.98599C80.5522 7.34415 80.8159 7.05772 81.4531 7.05071C83.0667 7.02733 84.6803 7.02733 86.2939 7.05071C86.9941 7.06006 87.2695 7.36286 87.3221 8.05847C87.3333 8.21374 87.3325 8.36975 87.3318 8.52591C87.3316 8.56494 87.3314 8.60398 87.3314 8.64302V16.7648L87.3302 16.7624Z" fill="#003168"/>
<path fill-rule="evenodd" clip-rule="evenodd" d="M152.298 24.5498V32.7335C152.298 33.9213 152.052 34.1598 150.849 34.1622H146.707C146.177 34.1622 145.693 34.0873 145.619 33.3847C145.585 33.0593 145.426 33.182 145.291 33.2863C145.265 33.306 145.241 33.325 145.218 33.3403C144.116 34.09 142.816 34.4931 141.484 34.4977C138.034 34.5152 135.366 33.0305 133.719 30.013C131.797 26.4905 131.784 22.8207 133.614 19.2573C135.966 14.6779 141.265 13.821 144.536 15.418C144.68 15.4791 144.815 15.5576 144.939 15.6518C145.328 15.9815 145.626 16.1861 145.801 15.4437C145.89 15.0696 146.329 14.9901 146.679 14.9866C148.215 14.9702 149.752 14.9538 151.286 14.9959C152.046 15.017 152.292 15.356 152.295 16.2036C152.301 18.2348 152.3 20.2749 152.299 22.3163V22.3175C152.299 23.0613 152.298 23.8059 152.298 24.5498ZM142.18 28.229C144.183 28.2512 145.579 26.7921 145.623 24.6293C145.667 22.4887 144.294 20.9724 142.284 20.9408C140.252 20.9092 138.794 22.415 138.783 24.5545C138.778 26.6554 140.211 28.2114 142.181 28.2278L142.18 28.229Z" fill="#003168"/>
<path d="M103.538 23.5131C103.539 23.933 103.54 24.367 103.54 24.821C103.553 25.2792 103.545 25.7661 103.537 26.2714C103.522 27.2243 103.506 28.2429 103.625 29.2566C103.891 31.4089 104.868 33.0527 107.042 33.7541C108.624 34.2649 110.246 34.206 111.865 34.1472C112.225 34.1341 112.585 34.121 112.944 34.1142C113.466 34.1037 113.725 33.7004 113.732 33.1906C113.746 32.1385 113.755 31.0863 113.732 30.0341C113.718 29.3864 113.41 29.0929 112.749 29.0357C112.58 29.0211 112.41 29.0197 112.24 29.0183C112.04 29.0167 111.841 29.0151 111.644 28.9924C110.985 28.9176 110.534 28.575 110.353 27.9075C110.259 27.5698 110.209 27.2212 110.205 26.8705C110.202 26.0453 110.202 25.2199 110.202 24.3945C110.201 23.0974 110.201 21.8003 110.191 20.5036C110.188 20.0815 110.357 19.9646 110.745 19.974C111.446 19.9903 112.146 19.995 112.846 19.9658C113.623 19.9319 113.9 19.663 113.924 18.889C113.95 17.9537 113.949 17.0185 113.924 16.0832C113.903 15.2672 113.647 15.0064 112.83 14.9667C112.152 14.9328 111.469 14.9328 110.79 14.9585C110.34 14.9749 110.177 14.8276 110.186 14.3599C110.213 13.0704 110.204 11.7829 110.195 10.4956L110.193 10.2681C110.188 9.33747 109.897 9.03467 108.972 9.02415C107.592 9.01168 106.212 9.01168 104.832 9.02415C103.844 9.03234 103.55 9.32929 103.537 10.3265C103.53 11.0808 103.532 11.834 103.534 12.5868V12.5877C103.536 12.964 103.537 13.3407 103.537 13.7169V13.7204C103.536 14.8872 103.536 14.8873 102.354 14.9562C101.472 15.0076 101.198 15.2905 101.182 16.1966C101.176 16.6243 101.178 17.0526 101.18 17.4811C101.181 17.6954 101.182 17.9101 101.182 18.1244C101.183 19.85 101.247 19.9354 102.981 19.9669C103.419 19.974 103.547 20.1294 103.547 20.5515C103.534 21.5119 103.536 22.4691 103.538 23.5131Z" fill="#003168"/>
<path d="M126.924 15.6296C125.776 16.248 124.872 17.1436 124.106 18.2016C124.089 18.1787 124.073 18.1602 124.06 18.1443C124.031 18.1115 124.013 18.09 124.014 18.0648C124.008 17.7978 124.005 17.5299 124.001 17.2617C123.995 16.8877 123.99 16.5131 123.979 16.1393C123.954 15.3104 123.677 14.9877 122.86 14.9702C121.382 14.9406 119.904 14.9406 118.425 14.9702C117.649 14.9854 117.386 15.273 117.332 16.0458C117.309 16.3758 117.313 16.7083 117.316 17.0406C117.317 17.1568 117.318 17.273 117.318 17.3891C117.313 22.5128 117.313 27.637 117.318 32.7616C117.319 33.8757 117.599 34.1551 118.691 34.1551C119.113 34.1551 119.534 34.1553 119.956 34.1554C120.799 34.1557 121.642 34.1559 122.484 34.1551C123.747 34.154 123.98 33.9213 123.98 32.6505C123.983 31.9507 123.981 31.2506 123.978 30.5504C123.973 28.9707 123.968 27.3904 124.018 25.8124C124.097 23.2778 125.425 21.7498 127.876 21.143C128.238 21.0555 128.605 21.0203 128.971 20.9851C129.281 20.9554 129.589 20.9258 129.895 20.8648C130.427 20.7572 130.712 20.4486 130.712 19.8944C130.711 19.4798 130.712 19.0652 130.713 18.6506C130.716 17.6623 130.718 16.674 130.702 15.6857C130.692 15.0251 130.29 14.6884 129.63 14.7668C128.681 14.8802 127.763 15.173 126.924 15.6296Z" fill="#003168"/>
<path d="M185.709 10.6275C185.885 10.1841 185.974 9.70894 185.971 9.2298C185.983 7.24606 184.495 5.74515 182.492 5.71415C180.534 5.69269 178.965 7.21865 178.943 9.17139C178.932 9.6504 179.013 10.1269 179.183 10.5732C179.353 11.0195 179.607 11.4267 179.931 11.771C180.256 12.1152 180.643 12.3897 181.072 12.5784C181.501 12.7672 181.962 12.8664 182.428 12.8703C182.894 12.8741 183.357 12.7826 183.788 12.601C184.22 12.4194 184.612 12.1514 184.941 11.8126C185.271 11.4738 185.532 11.0709 185.709 10.6275Z" fill="url(#paint0_linear)"/>
<path d="M156.036 8.51581V20.6126C156.034 24.7446 156.04 28.8714 156.054 32.993C156.055 34.2257 156.294 34.4737 157.471 34.4737H161.473C162.622 34.4737 162.877 34.2186 162.877 33.0431L162.879 32.082C162.884 29.9192 162.888 27.7564 162.869 25.5946C162.864 25.0903 163.027 24.9639 163.499 24.9639C165.774 24.9777 168.05 24.9753 170.325 24.9729C171.201 24.972 172.076 24.9711 172.952 24.9711C173.875 24.9711 174.136 24.7195 174.149 23.7789C174.157 22.9057 174.154 22.0324 174.151 21.1592V21.1562C174.15 20.7191 174.149 20.2819 174.149 19.8448C174.144 18.6097 173.931 18.394 172.715 18.394L171.242 18.3926C168.66 18.3899 166.076 18.3873 163.494 18.4023C163.016 18.4059 162.853 18.2581 162.864 17.7609C162.885 16.9122 162.881 16.0635 162.877 15.2148C162.875 14.8714 162.874 14.5279 162.874 14.1845C162.875 13.4144 162.876 13.4144 163.653 13.4144H173.338C173.59 13.4144 173.841 13.4132 174.091 13.3893C174.575 13.3428 174.897 13.0627 174.903 12.5548C174.922 10.924 174.915 9.29548 174.903 7.667C174.9 7.20326 174.615 6.94098 174.186 6.86707C173.937 6.83205 173.686 6.81809 173.435 6.82534H157.54C157.327 6.82012 157.115 6.82728 156.903 6.8468C156.423 6.90641 156.116 7.16272 156.075 7.68131C156.053 7.96027 156.036 8.23804 156.036 8.51581Z" fill="url(#paint1_linear)"/>
<path d="M204.636 34.4835C204.906 34.4857 205.177 34.488 205.448 34.488C205.686 34.488 205.924 34.4896 206.163 34.4913C206.659 34.4947 207.157 34.4981 207.657 34.4868C207.745 34.4849 207.838 34.4899 207.931 34.4949C208.308 34.5151 208.702 34.5363 208.914 34.1101C209.139 33.6617 208.879 33.3023 208.632 32.9604C208.586 32.8969 208.541 32.834 208.499 32.7713L208.26 32.4135C206.644 29.9936 205.028 27.5755 203.394 25.1713C203.153 24.8173 203.155 24.5848 203.394 24.2331C205.145 21.6406 206.891 19.0437 208.63 16.4424L208.67 16.3838C208.889 16.0579 209.127 15.7048 208.917 15.2956C208.72 14.9101 208.321 14.9121 207.957 14.9138L207.884 14.9141C207.165 14.9114 206.446 14.9118 205.727 14.9123C204.841 14.9128 203.956 14.9134 203.07 14.9081C202.377 14.9034 201.849 15.1656 201.459 15.7724C201.193 16.1856 200.917 16.5915 200.64 16.997C200.296 17.5031 199.951 18.0087 199.629 18.5275C199.336 18.9972 199.18 18.9304 198.91 18.5144C198.614 18.0571 198.305 17.6107 197.995 17.1648C197.676 16.7041 197.356 16.2438 197.053 15.7724C196.894 15.499 196.666 15.2744 196.394 15.1222C196.121 14.97 195.814 14.8956 195.504 14.9069H190.574C190.381 14.9082 190.189 14.9342 190.002 14.9844C189.515 15.1144 189.419 15.4625 189.577 15.9048C189.652 16.0878 189.749 16.2604 189.866 16.4186C190.339 17.1173 190.812 17.8166 191.285 18.516L191.301 18.5402L191.302 18.5417L191.303 18.5434C192.599 20.4602 193.896 22.3779 195.203 24.2868C195.424 24.6051 195.406 24.8006 195.192 25.1117C193.42 27.7146 191.655 30.3226 189.897 32.9358C189.872 32.9722 189.847 33.0088 189.821 33.0457C189.609 33.3523 189.381 33.6808 189.572 34.0743C189.777 34.4947 190.18 34.4878 190.564 34.4813C190.611 34.4805 190.658 34.4797 190.704 34.4797C191.339 34.4825 191.973 34.4808 192.608 34.4791C193.559 34.4765 194.511 34.4739 195.461 34.4868C196.168 34.4963 196.672 34.2102 197.061 33.6141C197.383 33.1183 197.719 32.6313 198.055 32.1442C198.356 31.7074 198.657 31.2705 198.948 30.8269C199.195 30.4514 199.351 30.4323 199.602 30.8269C199.972 31.411 200.358 31.9852 200.744 32.5597L200.744 32.5604L200.745 32.5619L200.746 32.563C200.985 32.9184 201.224 33.2739 201.459 33.632C201.834 34.2031 202.315 34.5095 203.011 34.488C203.553 34.4745 204.094 34.479 204.636 34.4835Z" fill="url(#paint2_linear)"/>
<path d="M179.166 24.7016V16.4222C179.166 15.1311 179.386 14.9117 180.666 14.9081L180.99 14.9072C182.161 14.9038 183.326 14.9005 184.495 14.9081C185.531 14.9177 185.812 15.1942 185.809 16.2517C185.796 21.9104 185.776 27.5688 185.749 33.2267C185.749 34.2412 185.494 34.4785 184.494 34.4832C183.63 34.4872 182.767 34.4859 181.904 34.4846C181.473 34.4839 181.041 34.4832 180.61 34.4832C179.388 34.4832 179.17 34.2555 179.169 32.9764C179.165 30.2193 179.164 27.4611 179.166 24.7016Z" fill="url(#paint3_linear)"/>
<path d="M14.3683 0C6.43292 0 0 6.43292 0 14.3683V37.7168C0 45.6522 6.43292 52.0852 14.3683 52.0852H16.8232C16.2209 42.8897 14.3926 39.5521 13.2992 37.5562C13.188 37.3532 13.0844 37.1641 12.9905 36.9841C12.6645 36.3595 12.329 35.7728 11.9997 35.1969C10.6151 32.7755 9.33941 30.5446 9.33941 26.49C9.33941 18.7302 18.0106 12.4599 20.0644 11.6614C21.7073 11.0226 22.1181 12.3458 21.6617 13.4865L19.2657 20.9007C19.1973 21.0974 19.1305 21.287 19.0661 21.4701C18.271 23.7288 17.8281 24.9871 18.9234 26.1478C24.3429 31.891 30.1743 31.1487 32.4069 30.8645C32.5244 30.8496 32.6319 30.8359 32.7289 30.8245C34.2806 30.642 34.8251 29.1135 35.0108 28.5432C36.6081 23.6383 38.463 18.0491 38.463 18.0491C38.6618 17.2506 39.6505 16.7682 40.3733 18.0491C41.9085 20.7699 43.4214 24.2086 42.427 32.4214C42.0139 35.8326 40.8831 37.4445 38.0914 40.6342C35.6029 43.4774 33.9933 47.7048 32.9834 52.0852H37.7168C45.6522 52.0852 52.0852 45.6522 52.0852 37.7168V14.3683C52.0852 6.43292 45.6522 0 37.7168 0H14.3683Z" fill="url(#paint4_linear)"/>
<defs>
<linearGradient id="paint0_linear" x1="191.934" y1="5.71393" x2="177.975" y2="34.2968" gradientUnits="userSpaceOnUse">
<stop stop-color="#2583F0"/>
<stop offset="1" stop-color="#0552A9"/>
</linearGradient>
<linearGradient id="paint1_linear" x1="191.934" y1="5.71393" x2="177.975" y2="34.2968" gradientUnits="userSpaceOnUse">
<stop stop-color="#2583F0"/>
<stop offset="1" stop-color="#0552A9"/>
</linearGradient>
<linearGradient id="paint2_linear" x1="191.934" y1="5.71393" x2="177.975" y2="34.2968" gradientUnits="userSpaceOnUse">
<stop stop-color="#2583F0"/>
<stop offset="1" stop-color="#0552A9"/>
</linearGradient>
<linearGradient id="paint3_linear" x1="191.934" y1="5.71393" x2="177.975" y2="34.2968" gradientUnits="userSpaceOnUse">
<stop stop-color="#2583F0"/>
<stop offset="1" stop-color="#0552A9"/>
</linearGradient>
<linearGradient id="paint4_linear" x1="26.0426" y1="0" x2="26.0426" y2="52.0852" gradientUnits="userSpaceOnUse">
<stop stop-color="#0551A8"/>
<stop offset="1" stop-color="#2785F3"/>
</linearGradient>
</defs>
</svg>
